<?xml version="1.0" encoding="UTF-8"?>
<svg width="36px" height="36px" viewBox="0 0 36 36" version="1.1" xmlns="http://www.w3.org/2000/svg" xmlns:xlink="http://www.w3.org/1999/xlink">
    <title>头像_用户</title>
    <g id="页面-1" stroke="none" stroke-width="1" fill="none" fill-rule="evenodd">
        <g id="税务机器人-对话" transform="translate(-1234.000000, -80.000000)" fill-rule="nonzero">
            <g id="头像2" transform="translate(1234.000000, 80.000000)">
                <path d="M17.9997822,36 C13.1919176,36 8.67175381,34.1276574 5.27204825,30.7279518 C1.87234269,27.3281736 0,22.8079372 0,18 C0,13.1920627 1.87234265,8.67182644 5.27212084,5.27212084 C8.67189902,1.87241524 13.1919176,0 17.9997822,0 C22.8079372,0 27.3282462,1.87234265 30.7280243,5.27212084 C34.1277299,8.6718264 36,13.1919902 36,18 C36,22.8080098 34.1277299,27.3281736 30.7280243,30.7279518 C27.3282462,34.1276573 22.8079372,36 17.9997822,36 Z" id="路径" fill="#B6B9C1"></path>
                <path d="M17.7558612,16.1640525 C14.8413922,16.1640525 12.1084878,16.8707092 10.060824,18.1537841 C8.08706365,19.3905422 7,21.0100304 7,22.7138034 C7,24.4177216 8.08699107,26.0372098 10.060824,27.273968 C12.1084878,28.5570429 14.8413197,29.263627 17.7558612,29.263627 C20.6704027,29.263627 23.4032346,28.5570429 25.4508984,27.273968 C27.4246587,26.0372098 28.5117224,24.4176491 28.5117224,22.7138034 C28.5117224,21.0099578 27.4246587,19.3905422 25.4508984,18.1537841 C23.4032346,16.8707092 20.6704027,16.1640525 17.7558612,16.1640525 Z M17.7559338,15.0250822 C15.2677529,15.0250822 13.2433927,13.0007945 13.2433927,10.5125411 C13.2433927,8.02428758 15.2676803,6 17.7559338,6 C20.2441146,6 22.2684749,8.02428762 22.2684749,10.5125411 C22.2684749,13.0007945 20.2441146,15.0250822 17.7559338,15.0250822 L17.7559338,15.0250822 Z" id="形状" fill="#FFFFFF"></path>
            </g>
        </g>
    </g>
</svg>