<?xml version="1.0" encoding="UTF-8"?>
<svg width="36px" height="36px" viewBox="0 0 36 36" version="1.1" xmlns="http://www.w3.org/2000/svg" xmlns:xlink="http://www.w3.org/1999/xlink">
    <title>头像_机器人</title>
    <g id="页面-1" stroke="none" stroke-width="1" fill="none" fill-rule="evenodd">
        <g id="税务机器人-对话" transform="translate(-170.000000, -160.000000)">
            <g id="编组-9" transform="translate(170.000000, 160.000000)">
                <circle id="椭圆形" fill="#203062" cx="18" cy="18" r="18"></circle>
                <g id="机器人" transform="translate(6.000000, 5.000000)" fill-rule="nonzero">
                    <rect id="矩形" fill="#000000" opacity="0" x="0" y="0" width="24" height="24"></rect>
                    <path d="M11.98125,2.3015625 C13.134375,2.3015625 14.071875,3.2390625 14.071875,4.3921875 C14.071875,5.16477303 13.6510402,5.84056656 13.026477,6.20246172 L13.0256562,7.6515625 L17.0242188,7.65234375 C18.746875,7.65234375 20.1484375,9.05390625 20.1484375,10.7765625 L20.1484375,18.5015625 C20.1484375,20.2242188 18.746875,21.6257813 17.0242188,21.6257813 L6.93828125,21.6257813 C5.215625,21.6257813 3.8140625,20.2242188 3.8140625,18.5015625 L3.8140625,10.7765625 C3.8140625,9.05390625 5.215625,7.65234375 6.93828125,7.65234375 L10.9356562,7.6515625 L10.9356179,6.20222693 C10.3112778,5.84027431 9.890625,5.16460598 9.890625,4.3921875 C9.890625,3.2390625 10.828125,2.3015625 11.98125,2.3015625 Z M11.9426562,9.7425625 L6.93828125,9.74296875 C6.36875,9.7453125 5.9046875,10.209375 5.9046875,10.7789063 L5.9046875,18.5039062 C5.9046875,19.0734375 6.36875,19.5375 6.93828125,19.5375 L17.0242187,19.5375 C17.59375,19.5375 18.0578125,19.0734375 18.0578125,18.5039062 L18.0578125,10.7765625 C18.0578125,10.2070312 17.59375,9.74296875 17.0242187,9.74296875 L12.0195238,9.74462202 L11.98125,9.7453125 L11.9426562,9.7425625 Z M22.4289062,11.4773438 C23.0054687,11.4773438 23.4742187,11.9460938 23.4742187,12.5226563 L23.4742187,16.7578125 C23.4742187,17.3367188 23.0054687,17.803125 22.4289062,17.803125 C21.8523437,17.803125 21.3835937,17.334375 21.3835937,16.7578125 L21.3835937,12.5226563 C21.3835937,11.9460938 21.8523437,11.4773438 22.4289062,11.4773438 Z M1.61796875,11.4773438 C2.19453125,11.4773438 2.66328125,11.9460938 2.66328125,12.5226563 L2.66328125,16.7578125 C2.66328125,17.3367188 2.196875,17.803125 1.61796875,17.803125 C1.04140625,17.803125 0.57265625,17.334375 0.57265625,16.7578125 L0.57265625,12.5226563 C0.57265625,11.9460938 1.04140625,11.4773438 1.61796875,11.4773438 Z" id="形状结合" fill="#FFFFFF"></path>
                    <path d="M9.06132477,15.8890625 C8.37124618,15.8890625 7.81132477,15.3291411 7.81132477,14.6390625 C7.81132477,13.9489839 8.37124618,13.3890625 9.06132477,13.3890625 C9.75140335,13.3890625 10.3113248,13.9489839 10.3113248,14.6390625 C10.3113248,15.3291411 9.75140335,15.8890625 9.06132477,15.8890625 Z" id="路径" fill="#FFFFFF"></path>
                    <path d="M15.0494958,15.8890625 C14.3594172,15.8890625 13.7994958,15.3291411 13.7994958,14.6390625 C13.7994958,13.9489839 14.3594172,13.3890625 15.0494958,13.3890625 C15.7395744,13.3890625 16.2994958,13.9489839 16.2994958,14.6390625 C16.2994958,15.3291411 15.7395744,15.8890625 15.0494958,15.8890625 Z" id="路径" fill="#FFFFFF"></path>
                </g>
            </g>
        </g>
    </g>
</svg>