<?xml version="1.0" encoding="UTF-8"?>
<svg width="130px" height="60px" viewBox="0 0 130 60" version="1.1" xmlns="http://www.w3.org/2000/svg" xmlns:xlink="http://www.w3.org/1999/xlink">
    <title>logo白色</title>
    <g id="页面-1" stroke="none" stroke-width="1" fill="none" fill-rule="evenodd">
        <g id="税务机器人-有结果" transform="translate(-170.000000, -64.000000)" fill="#FFFFFF" fill-rule="nonzero">
            <g id="logo品牌色-灰" transform="translate(170.000000, 64.000000)">
                <path d="M73.4700511,5.96342964 C74.2884789,6.19063134 75.1035247,6.43139732 75.9050428,6.71116061 C76.3768225,6.88071412 76.3751315,7.03500781 76.0927401,7.47245587 C75.6632922,8.14067787 75.4392498,8.9207536 75.4484819,9.71564879 C75.4484819,11.2297616 75.5330302,11.0110376 76.7268525,10.9906912 C77.5723358,10.9771269 78.417819,10.8889591 79.2633023,10.8363975 C80.5738013,10.7550118 81.7135127,11.2551947 82.8024951,11.9045846 C83.2977306,12.1989897 83.7764341,12.5204971 84.2364347,12.8676485 C84.7978356,13.2932278 84.8418007,13.8001928 84.2144521,14.2613784 C83.7071622,14.6343961 83.2945664,15.1583164 82.9005712,15.6601948 C82.506576,16.1620732 82.2241846,16.7266864 81.8420262,17.2302603 C81.4378852,17.771136 81.3076807,18.3917019 81.2214415,19.0309186 C81.1859312,19.2869444 81.0810912,19.4259783 80.8223734,19.4480202 C80.2474448,19.4988863 79.6725162,19.5548389 79.0975876,19.6074005 C78.1777018,19.6904817 77.2544341,19.7633897 76.3362393,19.8600352 C75.7731475,19.919379 75.5803773,20.1906646 75.5347212,20.8604009 C75.4383361,22.2592174 75.2979859,23.6563383 75.2489478,25.0585458 C75.2218924,25.7927125 75.3453329,26.5336614 75.4078987,27.2729147 C75.441718,27.6459324 75.5144296,28.0172546 75.5296483,28.3919678 C75.5516308,28.9413212 75.4231174,29.1532631 74.8955358,29.2397354 C74.40967,29.3112654 73.9173208,29.3277593 73.4277769,29.2889059 C72.8968135,29.2549952 72.8917406,28.7802454 73.0320908,28.3665348 C73.194893,27.9486472 73.3006883,27.5106348 73.3466106,27.0643638 C73.3922666,26.0809535 73.3821208,25.0924565 73.3466106,24.1090462 C73.324628,23.3121447 73.2552984,22.5169387 73.1775139,21.7234283 C73.142376,21.4450839 73.0783353,21.1711814 72.9864347,20.9061804 C72.8962498,20.6190698 72.7008492,20.5776234 72.4894158,20.5768698 L72.2494923,20.5823803 C72.2231277,20.582498 72.1970352,20.5820506 72.1713888,20.5806377 L72.162934,20.4789055 C71.3969262,20.692543 70.6190816,20.8722697 69.8682925,21.1333821 C69.3474748,21.3131088 69.0904479,21.3029356 68.784383,20.8349679 C67.9016985,19.4921041 66.9818127,18.1712823 66.1667669,16.7877257 C65.6831505,15.9653911 65.2993011,15.0667575 65.3212836,14.0579142 C65.3331204,13.6662456 65.4903803,13.4153064 65.8742297,13.3288341 C66.9361566,13.0931547 68.0133023,12.9032548 69.0617015,12.6150138 C70.1743574,12.3081219 71.2599579,11.9215399 72.3557042,11.5451312 C72.6938975,11.4298348 72.7108072,11.0992054 72.7108072,10.7940091 L72.7108072,7.17743276 C72.7163784,6.92342259 72.7441032,6.67038823 72.7936645,6.42122411 C72.8613032,6.06177067 73.1183301,5.86847967 73.4700511,5.96342964 Z M57.0456937,11.4891785 C57.585112,11.5909106 57.7000977,11.9028891 57.5022546,12.4183317 C57.4701904,12.507744 57.430002,12.5940137 57.382196,12.6760531 C56.9137983,13.4254796 56.8867428,14.2529007 56.9526905,15.0972772 C56.9865098,15.5262475 57.4261611,15.7754912 57.7558996,15.5042056 C58.3849391,14.9955451 58.9801593,14.4614515 59.5872163,13.9341401 C60.1942733,13.4068287 60.8419134,12.8303468 61.4777168,12.2894711 C61.6011425,12.1720132 61.7666636,12.1095445 61.9366968,12.1162492 C62.10673,12.122954 62.2668476,12.1982633 62.3806929,12.3250773 C62.6561731,12.6027298 62.9174791,12.8941686 63.1636104,13.1982779 C63.3208703,13.3881778 63.2904329,13.5373849 63.0503156,13.6747232 C62.4331129,14.0240035 61.7888547,14.3529373 61.2342176,14.7785166 C60.5578311,15.3092191 59.9524651,15.9450447 59.3166617,16.5350909 C59.2963701,16.5537418 59.2794604,16.5740882 59.2608598,16.5944347 C59.0917631,16.7741614 58.7907711,16.9623658 58.7992259,17.1353103 C58.8076807,17.3082549 59.1019089,17.4998504 59.2811514,17.672795 C60.0454682,18.4154393 60.7759657,19.1987766 61.5876296,19.8769906 C62.5959126,20.7404773 63.7775347,21.3765417 65.05242,21.7420792 C66.2648429,22.0811862 67.4519014,22.5271119 68.6389599,22.9543868 C69.0522313,23.1108221 69.4487817,23.3084969 69.8226364,23.544433 C69.9701763,23.6465902 70.0644507,23.8095285 70.0796633,23.9886632 C70.0796633,24.102264 69.8733654,24.244689 69.7296332,24.3125104 C69.0972118,24.6109246 68.4174433,24.6397487 67.7309109,24.6516174 C66.7721329,24.6617906 65.8116639,24.7330031 64.8562678,24.7126567 C64.2699606,24.7026436 63.6869496,24.6223839 63.1196453,24.4735862 C62.5108973,24.3040327 62.274162,23.7309419 62.0154442,23.208717 C61.7313618,22.6322351 61.4269878,22.0693175 60.8841876,21.6827355 L59.4826895,20.6548644 C59.2478957,20.4853109 59.0111604,20.3183949 58.7704795,20.1567539 C58.3781287,19.9114443 57.963037,19.7047572 57.5310011,19.5395791 C57.1589884,19.3852854 56.9915827,19.5141461 56.9712911,19.9312477 C56.9543815,20.283919 56.9611453,20.6365903 56.9611453,20.9892616 L56.9611453,24.2107783 L56.8749061,24.2039961 L56.8749061,28.1885036 C56.8842386,28.3104028 56.8842386,28.43284 56.8749061,28.5547392 C56.8038855,29.0057515 56.573914,29.1583497 56.1342627,28.9904917 C55.4744896,28.7524139 54.8281457,28.4784614 54.1981061,28.1698527 C53.2900571,27.7035806 52.3989178,27.2000066 51.5263791,26.6676086 C51.1837854,26.4303302 50.8709562,26.1525206 50.5946565,25.8401875 C50.5116665,25.7141786 50.45421,25.5730298 50.4255599,25.4247814 C50.5555635,25.3699552 50.6939659,25.3378416 50.8347738,25.3298314 C51.4841049,25.4095216 52.1283631,25.5214269 52.7776943,25.6112903 C53.1480782,25.6680409 53.5211607,25.7053933 53.8954231,25.7231956 C54.353675,25.7367599 54.6039381,25.528209 54.609011,25.0856744 C54.6343755,23.0391635 54.6411393,20.9943482 54.6479032,18.9478374 C54.6479032,18.2153662 54.6377574,17.482895 54.6191568,16.7436417 C54.6005561,16.0043884 54.5870284,15.3075235 54.5295355,14.5937032 C54.4796398,14.2379074 54.4004577,13.8868635 54.2928002,13.544167 C54.2807498,13.4321615 54.2140122,13.3334689 54.1147006,13.2807901 C54.0153889,13.2281113 53.8964702,13.2283245 53.7973471,13.2813591 C53.5081207,13.393288 53.2257938,13.5223768 52.9518638,13.6679411 C52.5849241,13.8544499 52.234894,14.0748695 51.8628814,14.2478141 C51.5720352,14.3817614 51.2541335,14.3698926 51.1222381,14.025699 C51.0014522,13.694161 50.9246999,13.3481275 50.8939576,12.9965092 C50.8939576,12.9083414 51.078273,12.7591343 51.2050954,12.7065727 C52.03536,12.3572925 52.8656245,12.0063167 53.7111078,11.7011204 C54.1924439,11.5088122 54.6985944,11.3860716 55.214377,11.3365803 C55.8286878,11.314584 56.4434305,11.3658087 57.0456937,11.4891785 Z M94.2520292,7.94381462 C94.563167,8.36939393 94.8235758,8.81192859 94.7593191,9.34093554 C94.7170427,9.59917376 94.5771454,9.83114405 94.3687058,9.98862994 C93.957801,10.254829 93.4708026,10.400645 93.049752,10.6566708 C92.7869547,10.7984949 92.576086,11.020624 92.4477679,11.2908009 C92.3091087,11.6858606 92.3040358,12.1300908 92.2651435,12.5556701 C92.2347061,12.8676485 92.4105667,12.9914226 92.7115587,12.9846404 C92.9008887,12.9826924 93.0901363,12.9934548 93.2780325,13.0168556 C94.1235157,13.1050234 94.563167,13.5763822 94.613896,14.4495828 C94.6510972,15.090495 94.5310386,15.2549619 93.9121449,15.4923368 C93.555351,15.6296752 93.2036299,15.7856644 92.8586728,15.9552179 C92.4663686,16.1485089 92.4088757,16.4452276 92.7047948,16.7656837 C93.000714,17.0861398 93.3287615,17.4049004 93.6466632,17.72027 C94.0406583,18.1085475 94.059259,18.6087303 93.9324365,19.076698 C93.862492,19.3356525 93.6507997,19.4119656 93.4193736,19.4550711 L93.2190214,19.4873717 C93.1525236,19.4977512 93.0872607,19.5089053 93.0260785,19.5243193 C92.9315071,19.5311567 92.8365675,19.5311567 92.7419961,19.5243193 C92.3124906,19.5667077 92.1839772,19.7108282 92.1789043,20.1397985 C92.1507215,22.4310316 92.1197204,24.7216995 92.0859011,27.0118023 C92.0859011,27.4848565 92.0351721,27.9562153 92.0199534,28.4292696 C92.0199534,28.6513847 91.9218773,28.7972007 91.7037427,28.7141195 C91.1577887,28.521308 90.6260707,28.2901422 90.1125432,28.0223412 C89.9789569,27.9494332 89.9434466,27.6171083 89.9434466,27.4068619 C89.9586653,26.9677183 90.075342,26.5302703 90.0787239,26.0928222 C90.0973245,24.43798 90.0905606,22.7831377 90.0787239,21.129991 C90.0821058,20.8197081 90.0905606,20.4856877 89.7557493,20.2432262 C89.1571472,20.7756242 88.5991282,21.3012401 88.0106719,21.7878586 L87.6586076,22.084461 L86.9608948,22.6861782 C86.2618368,23.2861465 85.5474974,23.8660195 84.7166692,24.292164 C84.2939276,24.5091925 83.9557343,24.3938961 83.6057042,23.8869311 C83.3757328,23.5478241 83.5499023,23.2816251 83.7950924,23.0391635 C84.8485646,21.9862362 85.9138734,20.9451777 86.945363,19.8702085 C87.5422742,19.2496426 88.0918383,18.5832973 88.6363295,17.916952 C88.7563881,17.7694405 88.7716068,17.5354566 88.8358635,17.3404701 C88.632488,17.2826211 88.424151,17.24402 88.2135879,17.2251737 C87.3782504,17.2251737 86.5530588,17.3218192 85.7802871,17.6643173 C85.4539306,17.8084378 85.1461747,18.0034243 84.826582,18.1729778 C84.2787089,18.4510456 84.0064632,18.4035706 83.7054712,17.8779547 C83.4923531,17.4908556 83.3222385,17.0814775 83.1981813,16.6571695 C83.0831956,16.2807607 83.314858,15.9433492 83.7697279,15.765318 C84.1079212,15.6330663 84.4461145,15.5313342 84.7843078,15.426211 C85.7380129,15.1413611 86.6951,14.8632933 87.6589508,14.5784434 C88.4131219,14.3597194 89.1723658,14.1562552 89.919773,13.9171847 C90.0499775,13.8747964 90.2275289,13.6882875 90.222456,13.5780777 C90.2183786,13.1354408 90.1616113,12.6948749 90.0533594,12.2657336 C89.9451375,11.8961069 89.5832707,11.9384953 89.263678,11.9741015 C88.5179618,12.0554872 87.7722456,12.143655 87.0231475,12.19113 C86.8658876,12.2029988 86.6004058,12.1097443 86.5598226,11.9995346 C86.5333319,11.8188464 86.5964532,11.6365661 86.7289193,11.5112205 C87.2846516,11.0106539 87.8708546,10.5451811 88.4841425,10.1174906 C89.4293928,9.49353369 90.4067714,8.91026962 91.3993687,8.36261179 C91.9866011,8.05059272 92.597878,7.7863701 93.2273035,7.57249244 C93.7937772,7.36733269 93.9036901,7.46397819 94.2520292,7.94381462 Z M32.0143168,6.94853552 C32.3237637,7.09943815 32.6416654,7.24016756 32.9358936,7.41989428 C33.2909965,7.6335317 33.6241169,7.88447089 33.9978205,8.14219223 C33.3214339,9.27311413 32.7279047,10.3243459 32.0718097,11.3365803 C31.5983391,12.067356 31.0166466,12.7269191 30.5313392,13.4492171 C30.1996661,13.9687745 29.9014482,14.5090559 29.6385089,15.0667575 C29.5787846,15.1689166 29.5676915,15.2924854 29.608261,15.4036969 C29.6488305,15.5149084 29.7368214,15.6021362 29.8481888,15.6415439 C30.1238163,15.7704046 30.3892981,15.9196117 30.6683075,16.0416902 C31.4106418,16.370624 31.5865023,16.61139 31.3700586,17.3777719 C30.8762964,19.1258685 30.8779874,20.9163536 30.8221855,22.7034476 C30.7816023,24.1260015 30.7663836,25.5485555 30.7376372,26.9711094 C30.7291823,27.4238173 30.5245754,27.6628877 30.0832331,27.7510556 C29.8763007,27.8073797 29.6654751,27.8481852 29.4525026,27.8731341 C29.0382158,27.895176 28.8911018,27.7442734 28.8894108,27.3254762 C28.8894108,25.7248911 28.8894108,24.1260015 28.877574,22.5254164 C28.8674282,21.4419695 28.8352999,20.3585226 28.8031715,19.2750756 C28.7953395,19.0062911 28.7653637,18.7386156 28.7135503,18.4747831 C28.6425297,18.1119386 28.375357,17.9779913 28.072674,18.1814555 C27.565384,18.5205625 27.112205,18.9122311 26.606606,19.2360783 C26.0470636,19.6004898 25.4653658,19.9294991 24.8649106,20.2211842 C24.5267173,20.3805645 24.1225763,20.4873832 23.7674733,20.185578 L23.7708553,20.0228066 C24.0921389,19.5141461 24.4032767,19.0054856 24.7380881,18.5171714 C25.096573,17.9847734 25.4787314,17.4676352 25.8473621,16.9403238 C26.3766346,16.1841152 26.9380355,15.4482529 27.4199609,14.6632202 C28.0760559,13.591642 28.7101683,12.504804 29.280024,11.3857509 C29.9158274,10.1395326 30.5211934,8.87127232 30.8306403,7.48602015 C30.9777544,6.83323914 31.3988051,6.65012135 32.0143168,6.94853552 Z M44.9028634,21.5725257 C45.4930107,21.9421523 45.4608823,22.1371389 45.1565083,22.7339672 C44.7608222,23.5088268 44.5037953,24.3565943 44.2180219,25.1840154 C44.1317827,25.429868 44.1605291,25.7147179 44.1216369,25.9792214 C44.0590711,26.418365 43.7344055,26.564181 43.355629,26.6082649 C42.3038479,26.7269524 41.2453029,26.7964693 40.2002856,26.9473719 C39.4258229,27.0643638 38.6784158,27.2864789 37.9039531,27.4560324 C37.6824365,27.505203 37.455847,27.5289405 37.2275665,27.5831976 C36.4209755,27.7798797 36.0709454,27.1745736 35.7479708,26.659131 C35.3300396,25.9631784 34.9616207,25.2385145 34.6454607,24.4905416 C34.4380616,23.9746179 34.2646469,23.445605 34.126334,22.9069118 C34.0607448,22.7458768 34.0738275,22.5633802 34.1617119,22.4134068 C34.2495963,22.2634334 34.4022219,22.1631514 34.5744401,22.1422255 C35.5704194,21.9099372 36.5731625,21.709864 37.5708327,21.4877489 C38.4552082,21.2927624 39.3311288,21.0621696 40.2205772,20.8909206 C40.7583045,20.7959706 41.3061777,20.7857974 41.8591237,20.7247581 C42.9350884,20.6985209 43.994544,20.9936093 44.9028634,21.5725257 Z M51.4824139,16.7165132 C52.3667894,16.7402507 53.1852172,16.8860667 53.799038,17.5642807 C53.8878922,17.6930324 53.906916,17.8577154 53.849767,18.0034243 C53.3306403,18.8003258 52.8250413,19.6158782 52.2315121,20.356827 C51.4046295,21.3860168 50.5067263,22.359254 49.6324966,23.3494465 C49.3382685,23.6885535 49.0017661,23.981881 48.7261386,24.3277702 C48.2036299,24.9856378 47.5069518,25.112803 46.735871,25.0500682 C46.1744702,25.0042887 45.6130693,24.9551182 45.0550504,24.8805146 C44.9349917,24.8635593 44.8284608,24.7499584 44.7168571,24.6804415 C44.7963325,24.5702317 44.8521344,24.4142425 44.9603562,24.3565943 C45.4676462,24.0886998 46.0070645,23.8479338 46.5261912,23.5936035 C47.442695,23.135809 48.3101608,22.6203664 48.907072,21.7403837 C49.2892304,21.177466 49.7525552,20.6637189 50.1059672,20.0889325 C50.298808,19.737427 50.4346555,19.3573999 50.5084173,18.9630972 C50.5287089,18.880016 50.2869006,18.6239902 50.2006614,18.6409455 C49.7400137,18.6991003 49.289439,18.8200345 48.8614159,19.0003989 C48.3845634,19.2309917 47.9685856,19.5853586 47.5272433,19.8854683 C47.038554,20.2245753 46.8356381,20.1330164 46.5819931,19.5955318 C46.1626334,18.7070714 46.5819931,18.373051 47.2702164,18.1187207 C48.2053209,17.7796137 49.0964602,17.3082549 50.0332557,16.9640613 C50.4847437,16.8080721 50.9971066,16.7978989 51.4824139,16.7165132 Z M40.2831429,22.6712324 C39.4323948,22.7401536 38.5970693,22.9385434 37.805877,23.2595831 C37.352698,23.449483 37.1683827,23.7021178 37.2816774,24.1836497 C37.4964302,25.1026297 37.5167218,25.116194 38.4196979,24.9992021 L38.5803397,24.9992021 C39.2347437,24.8703414 39.9229671,24.8296486 40.530024,24.583796 C41.3061777,24.2684265 41.4228544,24.1887363 41.390726,23.642774 C41.390726,23.0239037 40.9054186,22.6135842 40.2831429,22.6712324 Z M105.211183,15.8331394 C105.403108,15.9501313 105.572204,16.1048489 105.735594,16.2699516 L106.059837,16.6059031 C106.1143,16.6615025 106.169397,16.7162306 106.225763,16.7690748 L106.229145,17.0946175 C105.427627,18.0780279 104.949083,19.2292962 104.521269,20.4059975 C104.352172,20.8909206 104.194912,21.3877124 103.997069,21.8658533 C103.827972,22.286346 103.405231,22.3168656 103.023072,22.3745138 C102.28412,22.4813325 101.546859,22.5932378 100.804524,22.6780146 C99.8744927,22.7814422 98.9444611,22.8713056 98.0076657,22.9391763 C97.8387026,22.9413097 97.6768664,22.8709706 97.5629415,22.745836 C96.8865549,21.8404202 96.1171652,20.9740018 95.5811288,19.9855048 C95.1042763,19.1055221 94.864159,18.0915921 94.5665489,17.1217461 C94.4634,16.7826391 94.664625,16.4893115 95.014655,16.3689285 C95.3156471,16.2671964 95.6250939,16.1875062 95.9328498,16.1112072 C97.133436,15.8110974 98.3272584,15.4872502 99.5379904,15.2312244 C100.408977,15.0396606 101.292044,14.9082307 102.180971,14.8378603 C103.307155,14.7564746 104.286224,15.2668307 105.211183,15.8331394 Z M42.750263,17.2879085 C42.9700887,17.3065594 43.2389524,17.5574986 43.3539381,17.771136 C43.5152645,18.1224503 43.6361041,18.491068 43.7141139,18.8698427 C43.8054261,19.2089498 43.6380204,19.4242827 43.2913723,19.3564613 C41.9538178,19.0919578 40.685593,19.5260148 39.3936946,19.7074371 C38.1017962,19.8888593 36.7912972,20.1279298 35.489253,20.3364806 C35.1510597,20.3907377 35.0005637,20.1313209 34.9193973,19.8786861 C34.8579599,19.619609 34.8178059,19.3559181 34.7993386,19.0902623 C34.7452277,18.7291133 34.934616,18.6324678 35.2525177,18.5646464 C36.4733955,18.303534 37.6892004,18.0203797 38.9016233,17.7287476 C40.1681572,17.4252468 41.438073,17.1776987 42.750263,17.2879085 Z M98.7432361,17.4930683 C98.3221855,17.7863958 97.9755374,18.1848466 98.0228844,18.7715017 C98.1750714,20.2144021 98.5623027,20.575551 99.8829475,20.1618405 C100.601608,19.9363343 101.127499,19.4310649 101.648317,18.9020579 C102.197881,18.3408358 102.273974,17.6999235 102.076131,17.0115363 C101.974632,16.800784 101.777173,16.6527639 101.546859,16.6147811 C100.511987,16.5537418 99.5751916,16.9081086 98.7432361,17.4930683 Z M72.2914475,13.9714419 C71.4256726,14.266465 70.5582068,14.5597925 69.7127236,14.9039862 C69.5047347,14.9887629 69.2510897,15.2549619 69.2324891,15.4601217 C69.1662541,16.0415506 69.1753482,16.6291303 69.2595446,17.2082184 C69.3356381,17.6643173 69.589283,18.0915921 69.7668345,18.5307357 C69.800066,18.6421283 69.8788684,18.7341546 69.9836559,18.7839419 C70.0884435,18.8337292 70.2093768,18.8366027 70.3163986,18.7918481 C71.0502781,18.5985571 71.7841575,18.4137438 72.514655,18.2272349 C72.8257929,18.1475448 72.9931986,17.9847734 72.9559973,17.6270155 C72.9069593,17.0861398 72.8866677,16.5469597 72.8511574,16.006084 L72.9103412,16.006084 L72.7987374,14.3105489 C72.7767548,13.9714419 72.6296408,13.8544499 72.2914475,13.9714419 Z M79.0857508,12.8591333 C78.1827747,12.8693441 77.2797986,12.891386 76.3802044,12.9422521 C75.8272584,12.9744672 75.6192695,13.2321886 75.6175785,13.7747598 C75.6158876,14.317331 75.6175785,14.8599023 75.6175785,15.4024735 L75.6175785,16.826723 C75.6175785,17.5744539 75.6175785,17.6219289 76.3294754,17.4964593 C77.1749587,17.3455567 78.0119871,17.1132684 78.8473245,16.8945444 C79.2007365,16.8012899 79.4154893,16.538482 79.5862769,16.2044616 C79.9633624,15.4635127 80.032692,14.6632202 80.0665113,13.8612321 C80.0868029,13.3661358 79.5693672,12.8540842 79.0857508,12.8591333 Z M42.751954,14.7666478 C42.8365023,15.0718441 42.8753946,15.3923003 42.9396513,15.6991921 C42.9768525,16.0722098 42.7079889,16.1824196 42.4543439,16.1722464 C41.389035,16.1332491 40.4116564,16.5249177 39.3987675,16.7470328 C38.918533,16.852156 38.4247708,16.8979354 37.9343905,16.9657568 C37.2478581,17.0607068 36.5613257,17.1726121 35.8714114,17.2370425 C35.338757,17.286213 35.1696603,17.1488746 34.9802721,16.6266498 C34.9126334,16.440141 34.8855779,16.2383723 34.8111754,16.05695 C34.6640613,15.7008877 34.8602134,15.5482895 35.1493687,15.4787726 C35.6296032,15.3753449 36.1233654,15.3380432 36.6019089,15.2278334 C37.8667518,14.9328103 39.1231399,14.6021809 40.3896738,14.3088534 C40.8572778,14.1977291 41.3337014,14.1279447 41.8134676,14.1003025 C42.4898542,14.0630008 42.5625658,14.1325177 42.751954,14.7666478 Z M45.2359838,10.5091592 C45.5014655,10.5922404 45.829513,10.7109279 45.9664813,10.9211742 C46.2268375,11.3553082 46.4383739,11.8170553 46.5972118,12.2979487 C46.788291,12.8167825 46.6225763,13.0253333 46.0662483,13.0151601 C44.7963325,12.9914226 43.5297986,12.986336 42.2598828,12.9269923 C41.2351571,12.8812128 40.281452,13.2237109 39.2956185,13.3813957 C38.0747407,13.5780777 36.8555539,13.7798464 35.638058,13.9968749 C34.8044115,14.1477775 33.9470915,14.1494731 33.1506463,14.5343595 C32.9240568,14.6445693 32.5013152,14.6632202 32.3356005,14.5241863 C31.9872995,14.2309956 31.8189269,13.7754191 31.8925673,13.325443 C31.9600138,13.154896 32.0983554,13.0223733 32.2713438,12.9625985 C32.6290042,12.857587 32.9919387,12.7715604 33.3586352,12.7048772 C34.4729821,12.4522424 35.590711,12.213172 36.699985,11.9435819 C38.1220878,11.5959972 39.5323538,11.1924599 40.9629115,10.8753948 C41.7018638,10.7058413 42.4712536,10.6770172 43.2288066,10.593936 C43.6684578,10.546461 44.1114911,10.5193324 44.5545243,10.4837262 L44.5511423,10.4972905 C44.7811138,10.4972905 45.0263039,10.4447289 45.2359838,10.5091592 Z M39.4376597,6.01429569 C40.0678265,6.73320257 40.6788291,7.46793444 41.2706674,8.21849131 C41.438073,8.43043319 41.4938749,8.7254563 41.5987149,8.9814821 C41.5310762,9.54779082 41.2317751,9.78177466 40.685593,9.68852023 C39.735031,9.53781412 38.8150771,9.23376985 37.961446,8.7881911 C37.6114159,8.60168224 37.4118819,8.35582965 37.5674508,7.94042355 C37.7906583,7.34529073 37.9732827,6.7298115 38.2539832,6.16180724 C38.3541136,5.93911509 38.5627429,5.78483847 38.8045035,5.7547099 C39.046264,5.72458133 39.2862096,5.82295589 39.4376597,6.01429569 Z M55.6100631,5.13261744 C56.0074403,5.60228066 56.3845258,6.0872037 56.7937397,6.54669371 L57.104627,6.87499954 L57.7508267,7.50636657 C57.8451565,7.58100287 57.9263232,7.67098598 57.9909439,7.77256558 C58.1279122,8.07945743 58.3984669,8.39313142 58.1329851,8.73902058 C57.9035619,9.07640592 57.5205362,9.27576071 57.1133323,9.26972306 C57.046714,9.28082221 56.9787256,9.28082221 56.9121073,9.26972306 C56.0260409,8.95435354 55.1332106,8.65085275 54.2623628,8.29648592 C54.0690744,8.18601528 53.9378842,7.99183025 53.9072599,7.77087004 C53.851458,6.78237308 54.001954,5.84474218 54.7645799,5.10887995 C55.0774087,4.8070747 55.3259808,4.80029256 55.6100631,5.13261744 Z M97.4631745,54.1217128 C96.8544266,53.6130523 96.7867879,52.9195784 97.135127,52.2142358 C97.742184,50.9968417 98.6789794,50.0371688 99.5346084,49.0164567 C100.041898,48.4162372 100.630355,47.8906214 101.144409,47.2971841 C101.627683,46.7602315 101.849847,46.0367126 101.751466,45.3201902 C101.736247,45.1964161 101.487675,45.0234715 101.335488,45.0116028 C100.562716,44.9556501 99.9201488,45.3507098 99.255599,45.6762525 C98.6756327,45.9717517 98.0788159,46.2327507 97.4682474,46.4578942 C96.9609575,46.6274477 96.3978656,45.9848399 96.6227642,45.4303999 C96.8999658,44.7652536 97.2266806,44.1219608 97.6001428,43.5059676 C97.9112806,42.9735696 98.2765294,42.4767778 98.6434691,41.979986 C99.4145498,40.9033213 100.268488,39.9165198 101.408199,39.197613 C101.994965,38.8279863 102.632459,38.839855 103.268262,38.7974667 C103.35112,38.7974667 103.489779,38.9178497 103.525289,39.0111041 C103.694901,39.5703318 103.511279,40.1769172 103.060274,40.5472589 C102.679806,40.8371954 102.290884,41.1186542 101.895198,41.3950264 C101.788299,41.4435191 101.673921,41.4733376 101.557004,41.4831943 C101.528814,41.3725257 101.5191,41.2579391 101.528258,41.1440872 C101.582369,40.9270587 101.697355,40.721899 101.736247,40.5014794 C101.768455,40.3486154 101.745064,40.1892409 101.670299,40.0521626 C101.629716,39.9911234 101.381144,39.9911234 101.289832,40.0521626 C100.837044,40.3330272 100.413332,40.6584861 100.024989,41.0237042 C99.3803455,41.6869277 98.914788,42.5038544 98.6722155,43.3974534 C98.5797168,43.8043185 98.5562785,44.2239074 98.6028859,44.6385851 C98.6147227,44.7742279 98.8751315,44.9776921 99.0425372,44.996343 C99.6360664,45.0845108 100.116301,44.7403172 100.608372,44.4876824 C101.149481,44.2045281 101.670299,43.8772898 102.213099,43.5924399 C102.304591,43.5308472 102.419007,43.5141894 102.524191,43.5471481 C102.629375,43.5801068 102.713972,43.6591244 102.754209,43.7619934 C103.07211,44.3113468 103.273335,44.8590046 102.936833,45.4727883 C102.924996,45.4965258 102.901323,45.5185678 102.899632,45.5440008 C102.887795,45.7610293 102.877649,45.9763622 102.867503,46.1933907 C103.056892,46.0967452 103.254735,46.013664 103.432286,45.9017587 C103.868556,45.627082 104.294679,45.3388411 104.725876,45.0539912 L104.852698,45.1625054 C104.781411,45.2903691 104.699982,45.4122756 104.609199,45.5270454 C104.088381,46.0933542 103.469487,46.5918415 103.05351,47.2225805 C102.556366,47.9838758 102.221554,48.8570764 101.82925,49.6878886 C101.196828,51.0205791 100.562716,52.3600519 99.4382234,53.3519399 C99.0442282,53.6995246 98.496355,53.8724692 98.0178115,54.1251039 L97.4631745,54.1217128 Z M101.152863,48.2059909 L100.983767,48.1686891 C100.495077,48.7316068 99.9691868,49.2673959 99.5278446,49.8642242 C99.1532274,50.3978397 98.8142914,50.955763 98.5132647,51.5343263 C98.3729145,51.786961 98.3103487,52.1464144 98.6214865,52.2735796 C98.799038,52.3464876 99.0915752,52.14811 99.3266196,52.0599422 C99.3841124,52.0395957 99.4230047,51.9666877 99.4669698,51.9158217 C100.261724,50.9527577 100.753795,49.8269224 101.171464,48.6654809 C101.192939,48.5124456 101.186637,48.3567776 101.152863,48.2059909 L101.152863,48.2059909 Z M75.2083646,33.5650454 C74.9411919,33.9634961 74.7518037,34.2771701 74.5319781,34.5671066 C73.9655043,35.3165331 73.371975,36.0456132 72.8122651,36.7984308 C71.7486472,38.231158 70.6799564,39.660494 69.6518488,41.1186542 C68.9754622,42.0766315 68.4935368,43.1278633 68.4681723,44.3401709 C68.4428078,45.5524785 68.885841,45.6779481 69.9173305,45.5558695 C70.7712686,45.455833 71.4611829,44.9471724 72.115587,44.368995 C73.0663932,43.5231652 73.5612598,42.4319326 74.0165488,41.3141845 L74.2428228,40.7541142 C74.6790921,39.6791449 75.0189764,38.5617873 75.4975199,37.50886 C75.8069668,36.830646 76.0403202,36.060873 76.7454532,35.6437714 C77.026906,35.46667 77.3214253,35.3113604 77.6264467,35.1791948 C77.9189839,35.0571163 78.3484894,35.4538715 78.2774688,35.8302803 C78.1871379,36.3535603 78.0397017,36.8652954 77.8378175,37.3562618 C77.4759507,38.2040294 77.0481362,39.0144952 76.6456862,39.8402208 C76.4409111,40.1965168 76.2606843,40.5664418 76.1062678,40.9474052 C75.6835262,42.2478806 76.0944311,44.007846 77.3897114,44.7759234 C77.8378175,45.0421224 78.316361,45.3930982 78.8828348,45.2523688 C79.3343452,45.1660575 79.7635703,44.9883651 80.1442958,44.730144 C80.890012,44.150271 81.246806,43.3041989 81.5883812,42.4242162 C82.0229596,41.3068586 82.0686157,40.1725456 82.0347963,39.0161907 C82.0077409,38.0836464 81.6205095,37.2528342 81.1521118,36.4728881 C80.840974,35.9506633 80.2626635,35.816716 79.7232452,35.648858 C79.631933,35.6200339 79.5389298,35.5962964 79.4459266,35.5708634 L79.4256351,35.404701 C80.1273861,34.9723395 80.8291372,34.536587 81.5342703,34.1093121 C81.7929881,33.9533229 82.0094318,34.0177532 82.2106568,34.2432594 C82.9371112,35.0213505 83.4325523,35.987311 83.6412145,37.0324146 C83.768037,37.7106287 83.8779498,38.42784 83.7917105,39.102663 C83.663724,40.013722 83.4369179,40.9080464 83.1153239,41.7697397 C82.8464602,42.5157751 82.4135728,43.2041624 82.051706,43.9162871 C81.7128789,44.5508458 81.189032,45.0666438 80.5501278,45.3947937 C79.7173204,45.8476194 78.855261,46.2441279 77.9697129,46.5816683 C77.5790997,46.7308754 77.1479032,46.6342299 76.7268525,46.4290701 C75.5854502,45.8746301 75.0223583,44.8318761 74.4034646,43.8264238 C74.1278371,43.380498 74.1396738,43.3906712 73.7372238,43.7569068 L73.1754054,44.2721774 C72.5189764,44.8726317 71.8482264,45.4550794 71.0485871,45.8559793 C70.0204795,46.3714219 68.9686983,46.8190432 67.8120773,46.9479039 C67.0595972,47.0326806 66.7112581,46.7698727 66.7180219,46.0085774 C66.7180219,45.2998437 66.7180219,44.5690681 66.8871186,43.8908541 C67.0393056,43.2889391 67.3944085,42.7209349 67.7156922,42.1800592 C68.2398918,41.3221184 68.8097475,40.4930018 69.3846761,39.6672762 C69.7448519,39.150138 70.1354652,38.6499551 70.5345333,38.1633365 C71.3529611,37.1578842 72.1882985,36.1659962 73.0084173,35.1605439 C73.0637682,35.0548949 73.0993039,34.9399538 73.1132572,34.8214369 C72.9934449,34.787781 72.8687293,34.775161 72.7446265,34.7841351 C71.5045844,35.0882011 70.2679242,35.4007447 69.034646,35.721766 C68.6626334,35.8184115 68.2956937,35.94049 67.9321359,36.060873 C67.622689,36.1676917 67.5939426,36.3084212 67.8391327,36.5067988 C68.2838569,36.8747299 68.7302721,37.2392699 69.1699233,37.6122876 C69.5317902,37.917484 69.5165715,38.1039928 69.1158124,38.3701918 C68.9264242,38.4956614 68.7285811,38.6058712 68.5408838,38.7313408 C67.9405907,39.1331826 67.3994814,38.9246318 66.9412295,38.5092257 C66.3240268,37.9496991 65.757553,37.341002 65.1741695,36.7390871 C65.0206683,36.5686921 64.8883684,36.380239 64.7801744,36.177865 C64.4504359,35.601383 64.4622727,35.4216563 65.0101458,35.0401609 C65.607057,34.6213637 66.2158049,34.1483095 67.015632,34.2771701 C67.4451375,34.3449915 67.8611153,34.5264138 68.2872388,34.6027129 C69.0839795,34.7402786 69.9014491,34.6950629 70.6782654,34.4704611 C71.408763,34.2720835 72.1696979,34.1839157 72.9120322,34.0194488 C73.5072524,33.887197 74.0957087,33.7091659 74.685856,33.5650454 C74.859644,33.5486965 75.0345767,33.5486965 75.2083646,33.5650454 Z M65.0727116,41.3424648 C64.6448293,42.3646095 63.8737128,43.2043921 62.8930558,43.716214 C62.4231507,43.9883568 62.0019299,44.3373616 61.6468135,44.7487948 C61.3407485,45.0760331 61.4963175,45.4422687 61.9478055,45.4897437 C62.383773,45.5350864 62.8239763,45.517385 63.2549226,45.4371821 C63.689501,45.3524053 64.1004058,45.1506367 64.5282204,45.0116028 C64.6228222,45.0024215 64.7182909,45.0093 64.8106118,45.0319492 C64.7869382,45.1285947 64.7920111,45.2523688 64.7345183,45.3184946 C64.1780379,45.9639538 63.433299,46.4176984 62.6055915,46.615579 C62.1615187,46.7145384 61.7033551,46.7329145 61.2528183,46.6698361 C60.5561401,46.5765817 60.2382384,46.0407926 60.1621449,45.4032714 C59.9158084,43.7699709 60.4270979,42.1133136 61.5504284,40.9050168 C62.2165357,40.1224267 63.1640849,39.6354881 64.1866451,39.5502843 C65.2384263,39.4655075 65.4565609,40.4828286 65.0727116,41.3424648 Z M63.2008117,40.1318528 C62.6935217,40.1928921 62.2504885,40.4438312 62.0813919,40.9338409 C61.8480385,41.6256192 61.7043063,42.3445261 61.516609,43.0685196 C61.5710148,43.1832064 61.6391557,43.2908182 61.719525,43.3889757 C61.7482715,43.4161043 61.8886217,43.3703248 61.9393507,43.3194588 L62.1087598,43.1553553 L62.4481138,42.8275051 C63.0093422,42.277718 63.5322411,41.6985272 63.7689764,40.9016257 C63.8163235,40.7405499 63.8552157,40.4879152 63.7689764,40.3929652 C63.6232185,40.2316141 63.4178614,40.1372378 63.2008117,40.1318528 Z M29.6571096,41.5544067 C29.3575476,41.9474088 29.0369191,42.3238068 28.6966406,42.6819376 C28.2615591,43.1084553 27.9450592,43.6414715 27.7784458,44.2282656 C27.6516233,44.635194 28.0253269,45.3778384 28.4920337,45.4660062 C29.1167825,45.6072645 29.7556453,45.6761022 30.3960619,45.6711659 C31.3445815,45.6466733 32.288301,45.5273957 33.2132121,45.3151036 C34.175372,45.0709465 35.1409139,44.7199707 35.8984669,44.0281924 C36.5055238,43.4737525 36.9130467,42.7938429 36.595145,41.9240334 C36.3838889,41.2715042 35.8521518,40.7742171 35.1882609,40.6082981 C34.1855178,40.3522723 33.1743199,40.1233751 32.1698858,39.8707404 C31.3582219,39.6655806 30.5245754,39.5095914 29.7501127,39.2094817 C28.476815,38.7143855 27.9965805,37.8920509 28.3347738,36.5593604 C28.4463931,36.1752681 28.6435591,35.8216135 28.9113934,35.5250839 C29.7141667,34.5935242 30.679743,33.8166778 31.7606719,33.2327205 C32.8938961,32.6191925 34.1049931,32.1628772 35.3607395,31.8762924 C36.4397485,31.5968553 37.5799987,31.6753775 38.6107771,32.1001031 C39.3970765,32.4256458 39.7420337,33.1377705 39.6084473,33.982147 C39.4494965,34.9825127 38.9422065,35.791283 38.2725838,36.4864523 C37.778042,37.0208671 37.1452259,37.4071003 36.444649,37.6021144 C36.3493004,37.615613 36.2525333,37.615613 36.1571847,37.6021144 C36.1608403,37.4918046 36.1849233,37.3831385 36.2282053,37.2816583 C36.5224335,36.8645567 36.8352623,36.4627149 37.1379453,36.0523954 C37.4805864,35.574852 37.6869511,35.0127034 37.7348565,34.4263772 C37.8278596,33.5277436 37.0483241,32.9800858 36.3381181,32.8088367 C34.9447618,32.4697297 33.7458665,33.0021277 32.6332106,33.7905515 C32.1050352,34.1316304 31.6031027,34.5119307 31.1316323,34.9282556 C30.6412521,35.4013099 30.139035,35.8913195 30.0781602,36.6661791 C30.0172854,37.4410386 30.5262663,37.8327072 31.0927401,38.0938196 C32.1466482,38.5479478 33.2569657,38.8570758 34.3935067,39.0127996 C35.3066286,39.1603112 36.2535698,39.3163004 37.0990531,39.6740583 C38.6344506,40.3268393 39.3057643,41.5764487 38.5718849,43.234682 C38.313167,43.8162505 37.7822035,44.3384753 37.2563129,44.7250573 C36.2129866,45.4965258 35.0174733,45.962798 33.7678491,46.3544666 C32.6395494,46.6882415 31.4708875,46.8650983 30.2946039,46.8800824 C29.2563505,46.9173842 28.2180971,46.9529905 27.1798437,46.9580771 C26.559259,46.9580771 25.9741846,46.8054789 25.5683526,46.279863 C25.2064858,45.8169819 24.9883511,45.3642741 25.2031039,44.6996243 C25.6258455,43.3872802 26.555877,42.6259849 27.7074252,42.0393298 C28.1338442,41.8318457 28.5739667,41.6539614 29.0246881,41.5069317 C29.2202224,41.4584303 29.4202829,41.4305849 29.6215993,41.4238505 L29.6571096,41.5544067 Z M42.0535848,42.8277536 C42.4780174,42.4276073 42.8179017,42.0834137 43.1814595,41.7697397 C43.6887494,41.3322916 44.2095671,40.9117989 44.7320758,40.4946973 C44.9823388,40.2946242 45.1548174,40.4014429 45.2393657,40.6795106 C45.2675874,40.7976888 45.2789736,40.9192793 45.273185,41.0406596 C45.273185,41.976595 45.273185,42.9057482 45.273185,43.8467702 C45.266868,44.1833922 45.2992091,44.5196248 45.3695701,44.8488314 C45.4479304,45.2353752 45.7176592,45.555065 46.0848489,45.696599 C46.3435668,45.7932445 46.4314971,45.9797533 46.1930708,46.181522 C45.8189176,46.5139198 45.4235176,46.8214659 45.0093943,47.1021975 C44.7236209,47.2836198 44.2332406,46.881778 44.2400045,46.4833272 C44.2552232,45.5100901 44.2924245,44.536853 44.316098,43.5636158 C44.3375971,43.1557046 44.1771174,42.7593238 43.8781377,42.4818644 C43.6430933,42.2546627 43.5297986,42.2868779 43.3623929,42.5581635 C42.7671727,43.5246185 42.1787164,44.5012467 41.5192394,45.4219223 C41.2235361,45.7837201 40.8531757,46.0769912 40.433639,46.2815586 C40.1140463,46.4511121 39.9635503,46.2815586 40.0447167,45.9187141 C40.2256501,45.1268992 40.4116564,44.3367798 40.5875169,43.5449649 C40.7566136,42.8158848 40.8969638,42.0851092 41.0592966,41.3577247 C41.3721254,39.9504305 41.7035548,38.548223 42.0011649,37.1392334 C42.0992409,36.6780478 42.1550428,36.1914292 41.6849542,35.8099338 C42.0035074,35.3568064 42.4489991,35.0086555 42.9650158,34.8095681 C43.0394183,34.7824396 43.3032091,35.0011636 43.3032091,35.1181555 C43.3370284,35.6098607 43.3911393,36.1253034 43.2846084,36.5983577 C43.003908,37.8445759 42.6268225,39.0704478 42.3224485,40.313275 C42.1533519,40.9914891 42.0586577,41.6697031 41.9487449,42.3614814 C41.9301443,42.4886466 42.0045468,42.6175072 42.0535848,42.8277536 Z M90.9817,43.1516008 C91.3486397,42.7650188 91.7037427,42.363177 92.0875921,41.9935503 C92.58129,41.4782044 93.2182107,41.1237318 93.9155268,40.9762293 C94.5462573,40.8609329 95.0231099,41.3000765 94.7407185,41.8494298 C94.3382685,42.629376 94.5056741,43.4330596 94.4346535,44.223179 C94.4059071,44.5453306 94.461709,44.87596 94.4346535,45.1981116 C94.372981,45.546436 94.5886849,45.8837841 94.9301067,45.9729712 C95.1989704,46.0679211 95.1803698,46.2205193 95.0095821,46.3425978 C94.6890405,46.5811392 94.3464673,46.788374 93.9865474,46.9614681 C93.812602,47.0429911 93.6092172,47.0300204 93.4469739,46.9270573 C93.2847305,46.8240942 93.1859942,46.6453324 93.1850293,46.4528076 C93.198557,45.5202633 93.2543589,44.587719 93.2898692,43.6568702 C93.3101608,43.1312544 93.3321434,42.603943 93.3304524,42.0766315 C93.3235255,41.961129 93.2602677,41.8564716 93.1613558,41.7968682 C93.0372817,41.7813992 92.9129047,41.823178 92.8231625,41.9104691 C92.4308583,42.3699591 92.0588456,42.8464045 91.6817601,43.3177632 C90.9681723,44.2096147 90.2664212,45.1082483 89.5359236,45.9848399 C89.3362786,46.2042127 89.1020641,46.3892266 88.8426274,46.5324978 C88.6849681,46.5901756 88.5183806,46.6194502 88.3505561,46.61897 C88.3421013,46.4104192 88.2626259,46.1679577 88.3404103,46.0000997 C88.609274,45.4168357 88.9745228,44.8776555 89.2264768,44.2893048 C89.4676954,43.6794627 89.6754316,43.0568346 89.8487524,42.4242162 C89.9163911,42.1970145 89.5798888,41.9155557 89.2467684,41.8969048 L88.6498572,41.8545164 L88.6042011,41.7002227 C89.1892755,41.2136042 89.770968,40.7235945 90.3628063,40.2437581 C90.4333897,40.2070568 90.5158807,40.2009298 90.5910867,40.2268028 C90.92928,40.3200572 91.3638584,41.1067855 91.2674733,41.4425014 C91.1795431,41.7493933 91.0577935,42.0478074 90.9783181,42.3563948 C90.9174433,42.5971608 90.9022246,42.8481 90.8650233,43.0939526 L90.9817,43.1516008 Z M51.9744852,46.593537 C51.9575755,46.3883773 51.8967007,46.2205193 51.9406659,46.0848765 C52.2162934,45.2523688 52.5308132,44.4317298 52.8030588,43.5975265 C52.9603187,43.1193856 53.0685405,42.6242894 53.1869082,42.1325842 C53.2596197,41.8307789 53.1869082,41.5221916 52.9078987,41.4018086 C52.7574027,41.3390738 52.5155945,41.4899764 52.3177514,41.5510157 C52.2010747,41.5866219 52.0877799,41.6324013 51.9795581,41.6730942 L51.8899369,41.5798398 C52.0235232,41.3458559 52.1046896,41.0338775 52.3042237,40.9016257 C52.740167,40.600161 53.2101378,40.3514508 53.7043439,40.1606769 C54.0137908,40.0402939 54.3452202,40.1335483 54.3807305,40.6082981 C54.4145498,41.181389 54.4788066,41.7527843 54.5379904,42.3241797 C54.5563125,42.449571 54.5828619,42.5736142 54.6174658,42.6955018 C55.3817827,42.1868413 56.0801518,41.6985272 56.8157222,41.2610792 C57.0881135,41.1275548 57.385291,41.0524822 57.6882609,41.0406596 C57.9621975,41.013531 58.0467458,41.2102131 58.0264542,41.4713255 C57.9131595,42.5903787 57.8015557,43.7094318 57.7000977,44.8301805 C57.6679693,45.1692875 57.7186983,45.5185678 58.0061626,45.7542471 C58.1820404,45.8779305 58.3681637,45.9862758 58.5624906,46.0780944 L58.7840072,46.1967818 C58.4069217,46.7749593 57.7694273,46.9004289 57.2519916,47.1886698 C56.4065083,46.5901459 56.2475575,45.9119319 56.4859838,44.9132617 C56.675372,44.1248379 56.6872088,43.2923302 56.7379378,42.4767778 C56.7133956,42.2947221 56.6132907,42.1315351 56.4623102,42.027461 C56.4098903,41.9867682 56.1680821,42.1190199 56.0733879,42.2275342 C55.3970014,42.9956116 54.708778,43.7535157 54.0983391,44.5639815 C53.4354802,45.4117491 52.8182775,46.0916586 51.9744852,46.593537 Z M49.7457914,41.1898667 C49.613896,41.6849629 49.4650909,42.1766681 49.3534871,42.676851 C49.1759433,43.3854748 49.0365193,44.1031565 48.9358184,44.8267895 C48.8664888,45.4405732 49.1691718,45.6982945 49.8100481,45.7508561 C49.9477641,45.7754609 50.0830145,45.8123439 50.2141891,45.8610659 C50.1462944,45.9974891 50.0688812,46.1289371 49.9825267,46.25443 C49.6221314,46.7625612 49.0139405,47.0330207 48.3964001,46.9597726 C47.9951429,46.9527706 47.6660093,46.6389542 47.6388471,46.2374747 C47.4207125,44.4232521 48.0801894,42.9125303 49.2401924,41.5747532 C49.3687058,41.4255461 49.5039832,41.2831211 49.6358786,41.1373051 L49.7457914,41.1898667 Z M86.5074027,41.1169587 C86.4328675,41.290704 86.3679485,41.46844 86.3129415,41.6493567 C86.1252443,42.3987832 85.935856,43.1465142 85.7718323,43.9010273 C85.6888291,44.2160218 85.6562948,44.5422446 85.6754472,44.8674823 C85.734631,45.4049669 86.138772,45.6881213 86.6071697,45.8695435 C86.9199985,45.9916221 86.892943,46.1357425 86.6764993,46.3290335 C86.2469938,46.7156155 85.78536,47.0394627 85.1698482,46.9428172 C84.9869627,46.9229636 84.8180856,46.8352732 84.6963776,46.6969647 C84.2431986,45.9746667 84.1890876,45.1981116 84.4275139,44.3808637 C84.6529039,43.5279979 85.0316905,42.7235591 85.5452427,42.0071146 C85.7988877,41.6680076 86.1049527,41.3594202 86.390726,41.0372685 L86.5074027,41.1169587 Z M49.7085901,39.7571395 C49.4278897,39.5536753 49.2013002,39.4180325 49.0051481,39.2349147 C48.9569349,39.1491329 48.9569349,39.0443244 49.0051481,38.9585425 C49.2867852,38.6811993 49.5955317,38.4329667 49.9267248,38.2175937 C50.1613381,38.0851934 50.4582377,38.1596188 50.6031114,38.3871472 C50.7892294,38.6191925 50.7664173,38.955658 50.5506914,39.1603112 C50.2842111,39.3786963 50.0028241,39.5781257 49.7085901,39.7571395 L49.7085901,39.7571395 Z M87.5405832,38.7109944 C87.3342853,38.909372 87.0688035,39.1857442 86.7779573,39.4349879 C86.5564407,39.6231923 86.3027957,39.6842315 86.089734,39.4044682 C85.8766722,39.1247049 85.7887419,38.8602015 86.1201714,38.6143489 C86.351301,38.4307675 86.5929596,38.2609229 86.843905,38.1056884 C87.1516609,37.9327438 87.5659477,38.2175937 87.5405832,38.7109944 Z M20,4 L21.4491583,4 L21.4491583,55 L20,55 Z M108.550842,4 L110,4 L110,55 L108.550842,55 Z" id="形状结合"></path>
            </g>
        </g>
    </g>
</svg>