<?xml version="1.0" encoding="UTF-8"?>
<svg width="68px" height="39px" viewBox="0 0 68 39" version="1.1" xmlns="http://www.w3.org/2000/svg" xmlns:xlink="http://www.w3.org/1999/xlink">
    <title>logo主题色</title>
    <g id="页面-1" stroke="none" stroke-width="1" fill="none" fill-rule="evenodd">
        <g id="税务机器人-空状态" transform="translate(-170.000000, -716.000000)" fill="#203062" fill-rule="nonzero">
            <g id="编组-5" transform="translate(0.000000, 692.000000)">
                <g id="编组-10" transform="translate(170.000000, 24.000000)">
                    <path d="M28.0524821,5.12444466 C28.4641659,5.20479626 28.5519229,5.45120782 28.4009292,5.85832259 C28.3764578,5.92894357 28.345786,5.99708236 28.3093005,6.06187997 C27.9518197,6.6538034 27.931171,7.30732973 27.9815022,7.974248 C28.0073131,8.3130639 28.3428547,8.50992532 28.5945109,8.29565439 C29.0745935,7.8938964 29.5288652,7.47205051 29.9921707,7.05556139 C30.4554762,6.63907228 30.9497548,6.18374656 31.4349996,5.7565439 C31.529198,5.66377151 31.6555236,5.61443154 31.7852929,5.6197272 C31.9150621,5.62502286 32.0372637,5.6845048 32.1241504,5.78466695 C32.3343967,6.00396669 32.5338253,6.23415529 32.7216725,6.4743515 C32.8416932,6.62434115 32.8184634,6.74219016 32.6352061,6.85066482 C32.1641573,7.12653864 31.6724598,7.38634214 31.2491611,7.72247966 C30.7329433,8.14164716 30.2709283,8.64384465 29.7856836,9.10988391 C29.770197,9.12461504 29.7572916,9.14068536 29.7430956,9.15675568 L29.6826055,9.21794861 L29.5482158,9.34148236 C29.460519,9.42391108 29.3870896,9.5059025 29.3907769,9.58395834 C29.3972296,9.72055606 29.6217844,9.8718849 29.7585821,10.0084826 C30.3419083,10.5950493 30.8994236,11.2137566 31.518885,11.7494339 C32.2884059,12.4314461 33.1902192,12.9338321 34.1632109,13.2225465 C35.0885314,13.4903852 35.9944937,13.842593 36.900456,14.1800697 C37.2158645,14.3036279 37.5185115,14.4597584 37.8038372,14.646109 C37.9164396,14.7267963 37.9883898,14.8554908 38,14.9969777 C38,15.0867036 37.8425536,15.1991958 37.7328573,15.2527636 C37.2501936,15.4884616 36.7313946,15.5112279 36.2074335,15.5206022 C35.4756947,15.5286374 34.7426654,15.5848835 34.0135077,15.5688132 C33.5660384,15.5609045 33.1210847,15.4975126 32.6881184,15.3799869 C32.2235223,15.2460676 32.0428461,14.7934203 31.8453928,14.3809487 C31.6285813,13.925623 31.3962832,13.4810108 30.9820184,13.1756748 L29.9123959,12.363826 C29.7332014,12.2299067 29.5525252,12.0980706 29.3688376,11.9704008 C29.0693958,11.7766466 28.7525981,11.6133979 28.4228685,11.4829344 C28.1389486,11.3610678 28.0111847,11.4628465 27.9956982,11.7922881 C27.9827927,12.0708403 27.9879549,12.3493925 27.9879549,12.6279447 L27.9879549,15.172412 L27.9221371,15.1670552 L27.9221371,18.3141594 C27.9292598,18.4104397 27.9292598,18.5071449 27.9221371,18.6034252 C27.8679343,18.9596506 27.6924202,19.080178 27.3568786,18.9475979 C26.8533401,18.7595556 26.3600509,18.5431783 25.879205,18.2994283 C25.1861826,17.9311502 24.5060656,17.5334098 23.8401445,17.1129031 C23.5786773,16.9254922 23.3399262,16.7060684 23.1290545,16.4593767 C23.0657165,16.3598504 23.0218657,16.2483662 23,16.1312744 C23.0992187,16.0879707 23.2048473,16.0626063 23.3123118,16.0562795 C23.8078809,16.1192216 24.2995784,16.2076084 24.7951476,16.2785856 C25.0778244,16.3234093 25.3625607,16.3529116 25.6481975,16.3669724 C25.9979351,16.3776859 26.1889357,16.2129652 26.1928074,15.8634357 C26.2121655,14.2470294 26.2173277,12.6319623 26.2224899,11.015556 C26.2224899,10.4370245 26.2147466,9.85849297 26.2005506,9.27460469 C26.1863546,8.69071641 26.1760303,8.14030797 26.1321518,7.57650759 C26.0940714,7.29548754 26.0336396,7.01822066 25.9514755,6.74754694 C25.9422786,6.65908106 25.8913446,6.58113015 25.81555,6.53952256 C25.7397554,6.49791497 25.6489967,6.49808337 25.573346,6.53997197 C25.3526085,6.62837736 25.1371369,6.73033628 24.9280736,6.84530805 C24.6480255,6.99261931 24.3808827,7.16671444 24.0969629,7.30331215 C23.8749892,7.40910842 23.6323669,7.39973407 23.5317044,7.12787783 C23.4395206,6.86601743 23.3809433,6.59270802 23.3574809,6.3149875 C23.3574809,6.24534945 23.4981502,6.12750044 23.5949411,6.08598545 C24.2285985,5.81011163 24.8622559,5.53289861 25.5075282,5.29184382 C25.8748836,5.13995202 26.2611773,5.04300721 26.6548223,5.00391726 C27.123664,4.98654378 27.5928353,5.02700283 28.0524821,5.12444466 Z M40.3172844,1.01851175 C40.9516957,1.19350679 41.5834856,1.37894929 42.2047892,1.59442826 C42.5704933,1.72502158 42.5691825,1.84386149 42.3502844,2.18079224 C42.0173941,2.69546944 41.8437258,3.2962985 41.8508821,3.90854178 C41.8508821,5.07474008 41.9164204,4.9062747 42.8418221,4.8906035 C43.4972057,4.88015604 44.1525894,4.81224752 44.807973,4.77176359 C45.8238176,4.7090788 46.7072747,5.09432907 47.5514088,5.59450147 C47.9352949,5.82125785 48.306366,6.06888887 48.6629394,6.33627149 C49.0981142,6.66406071 49.1321941,7.05453471 48.6458995,7.40974853 C48.2526693,7.69705382 47.9328421,8.10058716 47.6274333,8.48714337 C47.3220246,8.87369958 47.1031264,9.30857531 46.806893,9.69643745 C46.4936197,10.1130301 46.3926906,10.5910017 46.3258414,11.0833384 C46.2983153,11.2805344 46.2170478,11.3876209 46.0165004,11.404598 C45.5708395,11.443776 45.1251786,11.4868718 44.6795178,11.5273557 C43.9664604,11.5913464 43.2507815,11.6475016 42.5390349,11.7219398 C42.1025494,11.7676474 41.9531219,11.9765967 41.9177312,12.4924403 C41.8430175,13.5698351 41.7342238,14.645924 41.6962115,15.7259308 C41.6752393,16.2913998 41.7709253,16.8620926 41.8194237,17.4314794 C41.845639,17.7187847 41.902002,18.0047841 41.9137989,18.2933953 C41.9308389,18.7165176 41.8312206,18.8797593 41.4222612,18.9463619 C41.0456381,19.0014557 40.6639893,19.0141596 40.2845152,18.9842339 C39.8729343,18.9581153 39.869002,18.592454 39.9777957,18.2738063 C40.1039932,17.9519414 40.1860014,17.614576 40.2215984,17.2708497 C40.2569891,16.5134084 40.2491245,15.7520494 40.2215984,14.9946082 C40.2045584,14.3808196 40.150817,13.768337 40.0905217,13.1571603 C40.0632842,12.9427741 40.0136425,12.7318093 39.942405,12.5277005 C39.8375436,12.1959935 39.5491748,12.2900207 39.3106151,12.2769613 L39.3040613,12.1986053 C38.7102837,12.3631529 38.1073308,12.5015818 37.5253502,12.7026955 C37.1216338,12.8411245 36.9223972,12.8332889 36.6851484,12.4728513 C36.0009279,11.4385523 35.2878705,10.4212303 34.6560807,9.3555889 C34.2812012,8.72221133 33.9836571,8.03006677 34.000697,7.25303655 C34.0098724,6.951366 34.1317738,6.75808789 34.4293179,6.6914853 C35.2524798,6.5099606 36.0874385,6.36369608 36.9001142,6.14168745 C37.762599,5.90531355 38.6041116,5.6075608 39.4534888,5.31764364 C39.7156422,5.22884019 39.7287499,4.97418322 39.7287499,4.73911526 L39.7287499,1.95355987 C39.7330685,1.75791645 39.7545596,1.5630246 39.7929775,1.37111369 C39.8454082,1.09425587 40.0446448,0.945379491 40.3172844,1.01851175 Z M56.598798,3.35580247 C56.8401948,3.67598473 57.0422335,4.00892325 56.9923798,4.40691872 C56.9595796,4.60120283 56.85104,4.77572441 56.6893218,4.89420805 C56.3705206,5.09448141 55.9926821,5.20418529 55.6660093,5.3968049 C55.4621176,5.5035055 55.2985148,5.67062314 55.1989589,5.87388921 C55.0913799,6.17111019 55.0874441,6.50532434 55.0572695,6.82550659 C55.0336546,7.06022187 55.1700963,7.15334261 55.4036215,7.1482401 C55.5505134,7.14677449 55.6973415,7.15487156 55.8431211,7.172477 C56.4990907,7.23880958 56.8401948,7.59343375 56.879553,8.25038141 C56.9084157,8.73256823 56.815268,8.856304 56.3350983,9.03489172 C56.0582791,9.13821746 55.7853958,9.2555751 55.5177602,9.38313775 C55.2133903,9.52855918 55.1687843,9.75179382 55.3983737,9.99288723 C55.6279631,10.2339806 55.8824793,10.4737984 56.1291238,10.711065 C56.4348056,11.0031834 56.449237,11.3794932 56.3508415,11.7315662 C56.2655655,12.0377165 55.908718,12.0045502 55.6476421,12.0683316 C55.5742688,12.0734757 55.5006097,12.0734757 55.4272364,12.0683316 C55.0940038,12.1002222 54.9942964,12.2086505 54.9903606,12.531384 C54.968495,14.2551806 54.9444427,15.978552 54.918204,17.7014983 C54.918204,18.0573981 54.8788458,18.4120222 54.8670383,18.767922 C54.8670383,18.9350291 54.7909459,19.044733 54.6217057,18.9822273 C54.1981264,18.8371666 53.7855921,18.6632503 53.3871709,18.4617717 C53.2835278,18.4069197 53.255977,18.1568969 53.255977,17.9987192 C53.2677845,17.668332 53.3583083,17.3392203 53.3609322,17.0101087 C53.3753635,15.7650972 53.3701157,14.5200857 53.3609322,13.2763499 C53.363556,13.0429102 53.3701157,12.7916118 53.1103518,12.6091972 C52.6459253,13.0097439 52.2129854,13.4051882 51.7564306,13.771293 C50.9312208,14.4333431 50.1676722,15.1744821 49.2007731,15.6553933 C48.8727883,15.8186735 48.6104004,15.7319309 48.338829,15.3505186 C48.1604053,15.0953933 48.295535,14.8951199 48.4857662,14.7127053 C49.3031043,13.9205413 50.129626,13.1373066 50.9299089,12.3285594 C51.3930234,11.8616801 51.8194036,11.3603589 52.2418481,10.8590376 C52.3349957,10.7480581 52.3468032,10.5720217 52.3966569,10.4253246 C52.2388676,10.3818022 52.077229,10.3527609 51.9138633,10.338582 C51.2657653,10.338582 50.625539,10.4112927 50.0259828,10.6689693 C49.7727785,10.7773975 49.5340056,10.9240946 49.2860491,11.0516572 C48.8609808,11.26086 48.6497586,11.2251424 48.4162334,10.8296982 C48.2508854,10.5384663 48.1189017,10.230473 48.0226517,9.91124713 C47.9334398,9.62805805 48.1131755,9.37420837 48.4660871,9.24026758 C48.728475,9.14076872 48.9908628,9.06423113 49.2532506,8.98514228 C49.9931843,8.77083703 50.7357419,8.56163428 51.4835472,8.34732902 C52.0686721,8.1827732 52.6577328,8.02969802 53.2376099,7.84983468 C53.3386292,7.81794402 53.4763828,7.6776251 53.472447,7.59470938 C53.4692835,7.2616939 53.4252405,6.93023659 53.3412531,6.60737446 C53.257289,6.32928788 52.976534,6.36117854 52.7285775,6.3879667 C52.1500123,6.44919677 51.5714471,6.51552935 50.9902581,6.55124689 C50.8682477,6.56017628 50.6622733,6.49001682 50.6307868,6.4071011 C50.6102339,6.27116138 50.6592066,6.13402379 50.7619807,6.03972066 C51.1931465,5.66312216 51.6479531,5.31292629 52.1237735,4.99115567 C52.8571475,4.52172511 53.6154484,4.08290959 54.3855567,3.67088222 C54.8411619,3.43613639 55.3154221,3.23734995 55.8037629,3.07644027 C56.2432625,2.92208946 56.3285386,2.99480017 56.598798,3.35580247 Z M9.44892562,2.10561582 C9.69090909,2.22023047 9.93950413,2.32711829 10.1695868,2.46362562 C10.4472727,2.62588906 10.7077686,2.8164842 11,3.01223057 C10.4710744,3.87119654 10.0069421,4.66963567 9.4938843,5.43845528 C9.12363636,5.99349925 8.66876033,6.49445542 8.2892562,7.04306037 C8.02989206,7.43767841 7.79668948,7.84803679 7.59107438,8.27162638 C7.54437069,8.349219 7.53569602,8.44307287 7.56742086,8.52754101 C7.5991457,8.61200915 7.66795344,8.67826102 7.75504132,8.70819229 C7.97057851,8.80606548 8.17818182,8.91939232 8.39636364,9.01211428 C8.9768595,9.26194846 9.11438017,9.44481678 8.94512397,10.0269047 C8.55900826,11.3546317 8.56033058,12.7145538 8.51669421,14.0719003 C8.48495868,15.1523687 8.47305785,16.2328372 8.45057851,17.3133056 C8.44396694,17.6571496 8.28396694,17.8387301 7.93884298,17.9056959 C7.77702448,17.9484756 7.61216155,17.9794685 7.44561983,17.9984179 C7.12165289,18.0151594 7.00661157,17.9005447 7.00528926,17.5824569 C7.00528926,16.3667689 7.00528926,15.1523687 6.99603306,13.9366808 C6.98809917,13.1137734 6.96297521,12.2908659 6.93785124,11.4679585 C6.9317267,11.2638094 6.90828601,11.0605025 6.8677686,10.8601145 C6.8122314,10.5845242 6.60330579,10.4827876 6.36661157,10.6373243 C5.96991736,10.8948853 5.61553719,11.1923682 5.22016529,11.438339 C4.78261031,11.7151195 4.32773009,11.9650109 3.85818182,12.1865537 C3.59371901,12.3076074 3.27768595,12.3887391 3,12.1595098 L3.00264463,12.0358805 C3.2538843,11.649539 3.49719008,11.2631975 3.75900826,10.8923097 C4.03933884,10.4879389 4.33818182,10.0951583 4.62644628,9.69465096 C5.04033058,9.12028991 5.47933884,8.56138252 5.85619835,7.96512878 C6.3692562,7.15123599 6.86512397,6.32575296 7.3107438,5.47580163 C7.80793388,4.52926492 8.28132231,3.56598674 8.52330579,2.51385002 C8.63834711,2.01804507 8.96760331,1.87896213 9.44892562,2.10561582 Z M16.1998028,13.0011665 C17.0578803,12.9821487 17.902792,13.1960408 18.6271731,13.6156632 C19.0978132,13.8835837 19.072191,14.0249179 18.8294539,14.4575236 C18.5138958,15.0191735 18.3089178,15.6336701 18.0810147,16.2334189 C18.0122393,16.4116229 18.0351644,16.6180938 18.004148,16.8098167 C17.9542521,17.128126 17.6953326,17.2338194 17.3932598,17.2657732 C16.5544685,17.3518028 15.7102831,17.4021915 14.8768859,17.5115719 C14.259255,17.5963724 13.6632008,17.7573706 13.0455699,17.8802699 C12.8689113,17.9159107 12.688207,17.9331166 12.5061543,17.9724444 C11.8629011,18.1150076 11.5837535,17.676257 11.3261826,17.302643 C10.9928841,16.7981881 10.6990715,16.2729221 10.4469351,15.7307606 C10.2815352,15.356798 10.1432376,14.9733478 10.0329336,14.5828809 C9.98062654,14.4661561 9.99105989,14.3338751 10.0611474,14.2251682 C10.1312348,14.1164613 10.2529531,14.0437728 10.3902965,14.0286049 C11.184586,13.8602328 11.9842696,13.7152116 12.7799077,13.5542135 C13.4851936,13.4128793 14.1837369,13.2457362 14.8930684,13.1216078 C15.3219038,13.0527842 15.7588305,13.0454103 16.1998028,13.0011665 Z M14.9429643,14.4120508 C14.2644961,14.4620077 13.5983273,14.6058088 12.9673546,14.8385115 C12.6059461,14.9761587 12.4589554,15.1592787 12.5493075,15.5083128 C12.720572,16.1744272 12.7367544,16.1842591 13.4568743,16.0994586 L13.5849855,16.0994586 C14.1068701,16.0060551 14.6557255,15.9765593 15.139851,15.7983552 C15.7588305,15.5697625 15.8518797,15.5119998 15.8262574,15.116264 C15.8262574,14.6676814 15.4392267,14.370265 14.9429643,14.4120508 Z M24.1671336,10 C24.8425674,10.0170613 25.4676343,10.1218665 25.9364345,10.6093327 C26.0042961,10.701873 26.0188254,10.8202388 25.9751783,10.9249671 C25.5786999,11.4977399 25.1925532,12.083918 24.7392506,12.6164748 C24.1077264,13.3562048 23.4219609,14.0557188 22.7542758,14.7674194 C22.5295616,15.0111525 22.272561,15.2219817 22.0620529,15.4705894 C21.6629916,15.9434316 21.1309099,16.0348315 20.5420039,15.9897409 C20.113239,15.956837 19.6844741,15.9214957 19.2582921,15.8678744 C19.1665984,15.8556877 19.0852364,15.7740371 19,15.7240718 C19.0606986,15.6448586 19.1033168,15.5327414 19.1859703,15.4913067 C19.5734085,15.2987576 19.9853844,15.1257071 20.3818628,14.9429073 C21.0818344,14.6138676 21.7443536,14.2433933 22.2002392,13.6109059 C22.4921093,13.2063089 22.8459695,12.8370533 23.1158847,12.4239257 C23.2631651,12.1712812 23.3669174,11.8981368 23.4232523,11.6147318 C23.4387498,11.5550172 23.254071,11.3709987 23.1882065,11.3831853 C22.8363909,11.424984 22.4922686,11.5119055 22.1653698,11.6415424 C21.8011779,11.8072809 21.4834786,12.061982 21.1464074,12.2776858 C20.7731753,12.5214189 20.6182,12.455611 20.424481,12.069294 C20.1041988,11.4307133 20.424481,11.1906362 20.9501054,11.0078364 C21.6642831,10.7641033 22.3448828,10.4253143 23.0603519,10.1779252 C23.4051719,10.0658079 23.7964844,10.0584959 24.1671336,10 Z M64.2162574,8.74268636 C64.5117882,8.91579526 64.7370166,9.20054687 64.9973962,9.43512199 L65,9.67596916 C64.3829003,10.4035283 64.0144632,11.2552743 63.685083,12.1258365 C63.5548931,12.4845985 63.4338166,12.8521413 63.2814946,13.2058856 C63.1513047,13.5169799 62.8258302,13.5395593 62.5316013,13.5822093 C61.9626718,13.6612373 61.3950443,13.7440285 60.823511,13.8067491 C60.1074671,13.8832683 59.3914231,13.9497521 58.6701716,13.9999651 C58.5400846,14.0015434 58.4154847,13.9495043 58.3277724,13.8569256 C57.8070132,13.1870694 57.2146496,12.5460647 56.8019479,11.8147423 C56.4348126,11.1637022 56.2499431,10.4135636 56.020809,9.69603976 C55.9413933,9.44515729 56.0963191,9.22814395 56.365812,9.13908067 C56.5975499,9.06381592 56.8357972,9.00485854 57.0727427,8.94840999 C57.9970903,8.726379 58.9162303,8.48678623 59.8483894,8.29736996 C60.518974,8.15564472 61.1988587,8.0584086 61.883256,8.00634629 C62.7503201,7.9461345 63.5041191,8.32371262 64.2162574,8.74268636 Z M59.2364973,9.97075607 C58.9123246,10.1877694 58.6454355,10.4825563 58.6818887,10.916583 C58.7990595,11.9840879 59.0971942,12.2512778 60.1139766,11.9452011 C60.6672832,11.7783643 61.0721735,11.4045494 61.4731581,11.0131728 C61.896275,10.5979623 61.9548604,10.1237944 61.8025384,9.61450296 C61.7243928,9.45858149 61.5723663,9.34907139 61.3950443,9.32097046 C60.5982826,9.27581162 59.8770311,9.5379838 59.2364973,9.97075607 Z M17.226767,10.017317 C17.3987248,10.0294181 17.6090425,10.1922322 17.6989897,10.3308442 C17.8251868,10.5587837 17.9197131,10.7979499 17.9807361,11.0437062 C18.0521647,11.2637253 17.9212122,11.4034374 17.6500479,11.3594336 C16.6037504,11.1878187 15.6116858,11.4694431 14.6011026,11.5871534 L13.5864532,11.7152126 L11.5468663,11.9952888 C11.2823158,12.0304919 11.1645908,11.8621773 11.1010986,11.698263 C11.0530395,11.5301689 11.0216292,11.3590812 11.0071832,11.1867186 C10.9648551,10.9523982 11.1130034,10.8896928 11.3616809,10.845689 C12.3167085,10.6762742 13.2677678,10.4925583 14.2161815,10.3033419 C15.2069234,10.1064247 16.2003108,9.9458108 17.226767,10.017317 Z M39.4036796,7.18643396 C38.7325668,7.41366633 38.0601432,7.63959276 37.4047596,7.90469719 C37.2435352,7.96999384 37.0469201,8.17502535 37.0325017,8.33304326 C36.9811591,8.7808708 36.9882084,9.23343574 37.053474,9.67946032 C37.1124585,10.0307563 37.3090736,10.3598515 37.4467041,10.6980882 C37.4724638,10.7838849 37.5335482,10.8547652 37.6147751,10.8931124 C37.6960021,10.9314595 37.7897446,10.9336727 37.8727035,10.8992019 C38.4415765,10.7503255 39.0104494,10.6079788 39.5767009,10.4643261 C39.8178821,10.4029473 39.947648,10.2775777 39.9188111,10.0020258 C39.8807989,9.58543314 39.8650697,9.1701464 39.8375436,8.75355373 L39.8834204,8.75355373 L39.7969098,7.44762059 C39.7798698,7.18643396 39.6658331,7.09632457 39.4036796,7.18643396 Z M16.8598165,8.42767607 C16.921817,8.62119407 16.9503372,8.82438797 16.9974575,9.01898107 C17.0247377,9.25550306 16.8275763,9.32538456 16.6415749,9.31893396 C15.8603692,9.29420666 15.143644,9.54255476 14.4008786,9.68339286 C14.048716,9.75004906 13.6866333,9.77907676 13.3270307,9.82208075 C12.823587,9.88228635 12.3201433,9.95324295 11.8142197,9.99409675 C11.4236168,10.0252747 11.2996159,9.93819155 11.1607349,9.60706076 C11.1111345,9.48879976 11.0912944,9.36086286 11.036734,9.24582716 C10.9288532,9.02005617 11.0726942,8.92329717 11.2847358,8.87921807 C11.6368984,8.81363697 11.998981,8.78998477 12.3499036,8.72010327 C13.2774303,8.53303587 14.1987571,8.32339138 15.1275239,8.13739908 C15.4704243,8.06693774 15.8197923,8.02268907 16.1716115,8.00516178 C16.6676151,7.98150958 16.7209355,8.02558868 16.8598165,8.42767607 Z M44.6703424,6.32971287 C43.9703927,6.33757742 43.270443,6.35455455 42.5731148,6.39373255 C42.1444939,6.41854528 41.9832696,6.61704711 41.9819588,7.03494572 L41.9819588,9.38562537 C41.9819588,9.96154188 41.9819588,9.99810801 42.5337918,9.90146896 C43.1891754,9.78524091 43.8380052,9.60632807 44.4855242,9.43786269 C44.7594746,9.36603637 44.925942,9.16361673 45.0583295,8.90634791 C45.3506306,8.33565512 45.4043721,7.71925468 45.4305874,7.10154831 C45.4463166,6.72021583 45.0452218,6.32582402 44.6703424,6.32971287 Z M18.9315474,5.02320976 C19.1288945,5.08333105 19.37275,5.16921861 19.474566,5.32136228 C19.6681029,5.63552107 19.8253494,5.96966196 19.9434223,6.31765794 C20.0854619,6.69310926 19.9622771,6.84402597 19.5487282,6.83666418 C18.6047307,6.81948667 17.6632472,6.81580577 16.7192496,6.772862 C15.9575153,6.73973394 15.2485744,6.98758089 14.5157508,7.10168864 C13.6082059,7.24401659 12.701918,7.39002544 11.796887,7.54707697 C11.1771923,7.65627687 10.5398997,7.65750383 9.94785861,7.93602491 C9.7794223,8.01577764 9.46517545,8.02927426 9.34199069,7.92866312 C9.08307966,7.71649722 8.95791914,7.38682164 9.01266,7.06119879 C9.06279667,6.93778336 9.1656335,6.841884 9.29422517,6.79862826 C9.56009366,6.72263725 9.82988256,6.66038458 10.1024681,6.61212957 C10.9308227,6.42931177 11.7616914,6.25630969 12.5862751,6.06122224 C13.6434015,5.80969439 14.691729,5.5176767 15.7551403,5.28823422 C16.3044438,5.16553771 16.8763731,5.14467931 17.4395034,5.08455802 C17.7663201,5.05020299 18.0956508,5.03057155 18.4249815,5.00480529 L18.4224675,5.01462101 C18.5934178,5.01462101 18.775681,4.97658509 18.9315474,5.02320976 Z M27.1819732,1.17044512 C27.4561195,1.49102413 27.7162668,1.82201907 27.9985791,2.13565414 C28.2062303,2.36711913 28.4383797,2.57196565 28.6588633,2.79070006 C28.7239405,2.84164472 28.7799365,2.90306468 28.8245177,2.97240008 C28.9190106,3.1818759 29.1056634,3.39598102 28.9225104,3.63207531 C28.7642337,3.86236513 28.4999884,3.99843915 28.2190627,3.99431802 C28.1731034,4.00189399 28.126199,4.00189399 28.0802397,3.99431802 C27.4689518,3.77905558 26.8529976,3.57189441 26.252209,3.3300135 C26.1188614,3.25460932 26.0283546,3.12206403 26.0072272,2.97124276 C25.9687301,2.29652231 26.0725557,1.6565216 26.5986832,1.15424257 C26.8145005,0.948238728 26.9859878,0.943609428 27.1819732,1.17044512 Z M14.412842,1.20076039 C14.8756596,1.74551288 15.3244022,2.30225678 15.7590699,2.87099209 C15.8820188,3.03159129 15.9230017,3.25514538 16,3.44914921 C15.9503237,3.87827028 15.730506,4.0555718 15.3293699,3.98490815 C14.6312424,3.87071043 13.9555946,3.64032054 13.3286567,3.30268274 C13.0715818,3.16135544 12.9250367,2.97506037 13.0392922,2.66028594 C13.203224,2.20932338 13.33735,1.7429433 13.5435067,1.31253744 C13.6170462,1.14379221 13.7702711,1.02688892 13.9478289,1.00405897 C14.1253867,0.981229016 14.3016116,1.05577245 14.412842,1.20076039 Z M58.6458292,37.9973451 C58.2047533,37.599115 58.1557449,37.0561947 58.4081383,36.5039823 C58.8479889,35.550885 59.5267557,34.7995575 60.1467123,34.0004425 C60.5142755,33.530531 60.9406488,33.1190265 61.3131129,32.6544248 C61.6632751,32.2340448 61.8242469,31.6676022 61.7529635,31.1066372 C61.7419366,31.0097345 61.5618307,30.8743363 61.4515617,30.8650442 C60.8916404,30.8212389 60.4260603,31.130531 59.9445525,31.3853982 C59.5243308,31.6167444 59.0918998,31.8210804 58.6495048,31.9973451 C58.2819416,32.1300885 57.8739464,31.6269912 58.0368994,31.1929204 C58.2377493,30.6721776 58.4744746,30.1685439 58.7450712,29.6862832 C58.97051,29.269469 59.2351555,28.880531 59.5010262,28.4915929 C60.0597223,27.6486726 60.6784537,26.8761062 61.5042458,26.3132743 C61.9293939,26.0238938 62.3912983,26.0331858 62.8519776,26 C62.9120129,26 63.0124802,26.0942478 63.0382096,26.1672566 C63.1611037,26.6050758 63.0280581,27.0799711 62.7012766,27.3699115 C62.4256042,27.5969027 62.1438058,27.8172566 61.8571065,28.0336283 C61.7796516,28.0715932 61.696778,28.0949381 61.6120643,28.1026549 C61.5916383,28.0160125 61.5846002,27.9263027 61.5912357,27.8371681 C61.6304425,27.6672566 61.7137568,27.5066372 61.7419366,27.3340708 C61.7652738,27.2143936 61.7483249,27.0896194 61.6941534,26.9823009 C61.6647484,26.9345133 61.4846424,26.9345133 61.418481,26.9823009 C61.0904083,27.2021896 60.7834021,27.4569912 60.5020234,27.7429204 C60.0349391,28.2621577 59.6976137,28.9017292 59.5218548,29.6013274 C59.4548337,29.919862 59.4378512,30.2483579 59.4716212,30.5730088 C59.4801977,30.6792035 59.6688801,30.8384956 59.790176,30.8530973 C60.2202249,30.9221239 60.5681848,30.6526549 60.9247211,30.4548673 C61.3167885,30.2331858 61.6941534,29.9769912 62.0874461,29.7539823 C62.1537378,29.7057614 62.2366391,29.69272 62.3128513,29.7185234 C62.3890635,29.7443267 62.4503598,29.8061895 62.4795135,29.8867257 C62.7098531,30.3168142 62.8556532,30.7455752 62.6118363,31.2261062 C62.6032598,31.2446903 62.5861068,31.2619469 62.5848816,31.2818584 C62.5763051,31.4517699 62.5689539,31.620354 62.5616026,31.7902655 C62.6988262,31.7146018 62.8421759,31.6495575 62.970823,31.5619469 C63.2869274,31.3469027 63.5956805,31.1212389 63.9081092,30.8982301 L64,30.9831858 C63.9483485,31.0832902 63.8893481,31.1787308 63.8235697,31.2685841 C63.4462048,31.7119469 62.9977776,32.1022124 62.6963758,32.5960177 C62.3361638,33.1920354 62.0935721,33.8756637 61.8093232,34.5261062 C61.3510944,35.569469 60.8916404,36.6181416 60.0768753,37.3946903 C59.7914012,37.6668142 59.3944329,37.8022124 59.0476983,38 L58.6458292,37.9973451 Z M61.3192389,33.3659292 L61.1967179,33.3367257 C60.842632,33.7774336 60.4615914,34.1969027 60.1418114,34.6641593 C59.870378,35.0819266 59.6247977,35.5187245 59.406685,35.9716814 C59.3049925,36.169469 59.2596597,36.450885 59.4850985,36.5504425 C59.6137456,36.6075221 59.8257071,36.4522124 59.9960114,36.3831858 C60.0376685,36.3672566 60.0658484,36.310177 60.0977039,36.270354 C60.6735529,35.5163717 61.0300892,34.6349558 61.3327163,33.7256637 C61.3482762,33.6058524 61.3437103,33.48398 61.3192389,33.3659292 L61.3192389,33.3659292 Z M41.2921685,23.0091434 C41.0841189,23.3062649 40.9366407,23.540169 40.7654607,23.7563723 C40.3243429,24.3152136 39.8621567,24.8588827 39.426306,25.4202526 C38.5980579,26.4886256 37.7658596,27.5544699 36.9652637,28.6418081 C36.4385558,29.3561641 36.0632765,30.140059 36.043525,31.044067 C36.0237734,31.9480749 36.368767,32.0416365 37.1719965,31.9506036 C37.8369651,31.8760071 38.3742071,31.4967031 38.8837969,31.0655608 C39.603631,30.4523527 39.9878716,29.6661748 40.3344686,28.8570222 L40.5402931,28.3699736 C40.8800196,27.5683778 41.1446903,26.7351733 41.5173361,25.9500139 C41.7583049,25.4442752 41.9400191,24.8702618 42.489112,24.5592325 C42.7082816,24.4271695 42.9376263,24.3113563 43.175149,24.2128015 C43.4029501,24.1217685 43.7374096,24.4176257 43.6821053,24.6983107 C43.6117639,25.0885163 43.496954,25.470113 43.3397452,25.8362227 C43.1988508,26.1523094 43.045118,26.4614422 42.8874348,26.7685204 L42.4114226,27.6884907 C42.2519626,27.9541777 42.1116185,28.2300278 41.9913731,28.5141091 C41.6621807,29.4838631 41.9821557,30.796255 42.9908012,31.3690041 C43.3397452,31.5675065 43.712391,31.8292263 44.1535088,31.7242855 C44.5051037,31.6599239 44.8393448,31.5274201 45.1358189,31.3348667 C45.7165143,30.9024601 45.9943526,30.2715511 46.2603401,29.6153551 C46.5987499,28.7821506 46.6343027,27.9363027 46.6079673,27.0740182 C46.586899,26.3786275 46.2853587,25.7590976 45.9206135,25.1774981 C45.6783279,24.7880793 45.2279927,24.6881959 44.8079433,24.5630256 C44.7368377,24.5415317 44.6644154,24.5238308 44.591993,24.5048656 L44.5761918,24.3809596 C45.1226512,24.0585512 45.6691106,23.7336141 46.2182035,23.4149987 C46.4196692,23.2986788 46.5882157,23.346724 46.7449113,23.5148821 C47.3106073,24.0950983 47.6964114,24.8154072 47.8588984,25.5947325 C47.9576561,26.1004712 48.0432461,26.6352899 47.9760909,27.1384999 C47.8764267,27.8178691 47.699811,28.4847596 47.449383,29.1273173 C47.2400167,29.6836299 46.9029236,30.1969546 46.621135,30.7279803 C46.3572875,31.2011655 45.9493636,31.5857919 45.4518436,31.8304906 C44.8033296,32.1681591 44.1320368,32.4638322 43.4424532,32.7155333 C43.1382794,32.8267959 42.8025032,32.7547281 42.4746276,32.6017421 C41.7339447,32.2572076 41.3059946,31.6598038 40.9050199,31.0363521 L40.6653862,30.6609699 C40.4507527,30.3284467 40.4599701,30.3360328 40.146579,30.6091317 L39.6542717,31.0412814 C39.1604831,31.4719693 38.6533623,31.8861219 38.0529153,32.1743929 C37.2523194,32.5587543 36.4332888,32.8925419 35.5326184,32.9886322 C34.9466559,33.0518496 34.6754014,32.8558758 34.6806685,32.2881841 C34.6806685,31.7596872 34.6806685,31.2147538 34.8123454,30.7090151 C34.9308547,30.260172 35.2073763,29.8366158 35.4575625,29.4332892 C35.8657611,28.7935298 36.3095124,28.1752642 36.7572141,27.5595273 C37.037686,27.1739016 37.3418598,26.8009193 37.6526174,26.4380518 C38.2899339,25.6882942 38.940418,24.9486513 39.5790513,24.1988937 C39.6221535,24.1201121 39.6498255,24.0344015 39.660691,23.9460243 C39.5673922,23.9209274 39.4702751,23.9115168 39.3736352,23.9182087 C38.4080042,24.1449482 37.4450067,24.3780095 36.4846428,24.6173925 C36.1949535,24.6894602 35.9092145,24.7804932 35.626109,24.8702618 C35.3851402,24.9499157 35.3627551,25.0548564 35.5536867,25.202785 C35.8999971,25.4771482 36.2476242,25.7489828 36.5899843,26.0271391 C36.871773,26.2547215 36.8599221,26.3937996 36.5478477,26.5923021 C36.4003695,26.6858637 36.2463075,26.7680463 36.1001461,26.8616079 C35.6326929,27.1612581 35.2113266,27.0057435 34.854482,26.6959785 C34.3738611,26.2787441 33.9327433,25.8248436 33.4784578,25.3760005 C33.3589251,25.2489384 33.2559022,25.1084104 33.1716505,24.9575017 C32.9148805,24.5276238 32.9240978,24.3936031 33.3507312,24.1091251 C33.8155508,23.7968314 34.2895879,23.4440787 34.9124199,23.540169 C35.2468794,23.5907429 35.5708047,23.726028 35.9026306,23.7829236 C36.5230591,23.8855052 37.1596295,23.8517883 37.7645428,23.6843046 C38.3333873,23.536376 38.9259336,23.47063 39.5039954,23.3479883 C39.9674983,23.2493693 40.4257341,23.1166129 40.8852867,23.0091434 C41.0206168,22.9969522 41.1568384,22.9969522 41.2921685,23.0091434 Z M33.8627202,28.2547791 C33.5302526,28.9684472 32.9310893,29.5547891 32.1691114,29.9121465 C31.8039917,30.1021585 31.4767,30.3458359 31.2007719,30.6331013 C30.9629571,30.8615813 31.0838353,31.1172894 31.4346449,31.1504367 C31.773395,31.1820953 32.1154362,31.1697361 32.4502847,31.1137379 C32.7879553,31.0545462 33.1072314,30.91367 33.4396465,30.8165956 C33.5131529,30.8101851 33.5873328,30.8149878 33.6590667,30.8308016 C33.6406722,30.8982801 33.6446139,30.9847 33.5999415,31.0308695 C33.1675521,31.4815334 32.5888845,31.7983409 31.9457495,31.9365024 C31.6007017,32.0055966 31.2447051,32.0184269 30.8946347,31.9743851 C30.3533105,31.9092742 30.1062985,31.5351827 30.0471733,31.0900612 C29.855768,29.94968 30.2530437,28.7929908 31.1258799,27.9493499 C31.6434503,27.4029404 32.3797031,27.0629566 33.17424,27.0034667 C33.9914818,26.944275 34.1609741,27.6545753 33.8627202,28.2547791 Z M32.4082401,27.4095217 C32.014072,27.4521397 31.6698319,27.6273471 31.5384425,27.9694751 C31.3571252,28.4524793 31.2454442,28.9544249 31.0996021,29.459922 C31.1418758,29.5399971 31.1948217,29.6151323 31.2572693,29.6836666 C31.2796055,29.7026079 31.3886586,29.6706444 31.4280755,29.6351294 L31.7709281,29.3376177 C32.2266074,28.9398874 32.6584054,28.5256403 32.8497083,27.9469823 C32.8864973,27.8345181 32.9167169,27.6581268 32.8497083,27.5918321 C32.7364533,27.4791757 32.5768893,27.4132815 32.4082401,27.4095217 Z M14.2228379,21.3054851 C14.8185852,21.5617155 15.0799454,22.1222194 14.9787324,22.786817 C14.8583017,23.5741916 14.4739486,24.210764 13.9666024,24.7579226 C13.5919081,25.1785535 13.1124488,25.4825525 12.5816499,25.6360455 C12.5094081,25.64667 12.4360916,25.64667 12.3638498,25.6360455 C12.3666195,25.5492221 12.3848662,25.4636924 12.4176593,25.3838187 C12.6405841,25.0555235 12.8776018,24.7392392 13.1069326,24.4162821 C13.3665379,24.0404141 13.5228921,23.5979543 13.5591881,23.1364647 C13.6296528,22.4291621 13.0390302,21.9981079 12.5009358,21.86332 C11.4452458,21.5964133 10.5368912,22.0154568 9.69387663,22.6360147 C9.29369943,22.9044734 8.91340543,23.2038027 8.55619132,23.5314866 C8.18464995,23.9038213 7.80414034,24.2895015 7.75801796,24.8993831 C7.71189558,25.5092648 8.0975299,25.817542 8.52672425,26.0230601 C9.32522794,26.3804984 10.1664708,26.623809 11.027582,26.7463772 C11.7194177,26.8624816 12.4368769,26.9852586 13.0774655,27.2668451 C14.2407743,27.7806404 14.7494017,28.7641915 14.1933708,30.069365 C13.9973507,30.5271099 13.5950611,30.9381461 13.196615,31.2424197 C12.4061287,31.8496323 11.5003364,32.216629 10.5535465,32.5249062 C9.69867929,32.787616 8.81323129,32.9268177 7.92200863,32.9386115 C7.13536586,32.9679712 6.34872309,32.9959964 5.56208032,33 C5.09188831,33 4.64860102,32.879892 4.3411185,32.4661867 C4.06694659,32.1018591 3.90167474,31.7455387 4.06438424,31.2224017 C4.38467852,30.189473 5.08932596,29.5902675 5.9618076,29.128519 C6.2848881,28.965211 6.61835116,28.8252007 6.95984459,28.7094756 C7.10799308,28.6713008 7.25957081,28.649384 7.41210013,28.6440835 L7.43900485,28.7468425 C7.21203881,29.0561693 6.96911149,29.3524271 6.71129623,29.6343071 C6.38165252,29.9700136 6.14185329,30.3895436 6.01561704,30.8514015 C5.91952875,31.1716894 6.2026689,31.756215 6.55627379,31.8256107 C7.0296208,31.9367933 7.51366143,31.9909746 7.99887926,31.9870893 C8.71753429,31.9678115 9.43255253,31.8739296 10.1333204,31.7068373 C10.8623102,31.5146645 11.5938623,31.2384161 12.1678297,30.6939265 C12.6277723,30.2575342 12.936536,29.7223863 12.6956747,29.0377708 C12.5356144,28.5241736 12.1327387,28.1327656 11.6297353,28.002173 C10.8699973,27.8006584 10.1038533,27.6204965 9.34283409,27.421651 C8.72786906,27.2601725 8.09624873,27.1373954 7.50946959,26.901183 C6.5447432,26.5114993 6.18088889,25.8642507 6.43712432,24.8153076 C6.52169375,24.5129936 6.67107849,24.2346368 6.87400573,24.0012423 C7.48223471,23.2680239 8.21381295,22.6565784 9.03278922,22.1969533 C9.89138754,21.7140535 10.8089869,21.3548938 11.7604154,21.1293267 C12.577937,20.9093854 13.4418586,20.9711892 14.2228379,21.3054851 Z M17.3314002,24.0016828 C17.3903613,23.9818966 17.5994051,24.1414227 17.5994051,24.2267506 C17.6262056,24.5853752 17.6690863,24.9613126 17.5846648,25.3063342 C17.3622208,26.215262 17.0633954,27.1093502 16.822191,28.0158047 C16.6881886,28.5104593 16.6131472,29.0051138 16.5260457,29.5096615 C16.5113054,29.6024092 16.5702665,29.6963936 16.6091272,29.8497365 C16.9454733,29.5578903 17.2148181,29.3068531 17.5029233,29.0780754 C17.9049306,28.7590232 18.3176581,28.4523373 18.7317255,28.1481248 C18.9300491,28.0022017 19.0667316,28.0801098 19.1337328,28.2829181 C19.1486425,28.3403802 19.1576227,28.3989484 19.1605937,28.4578399 L19.1605333,30.592955 C19.1555273,30.8384699 19.1811564,31.0837007 19.2369147,31.3238072 C19.2990121,31.6057325 19.5127615,31.8388978 19.8037449,31.9421254 C20.0087686,32.0126137 20.0784499,32.1486437 19.8895065,32.2958034 C19.5930048,32.5382373 19.2796659,32.7625457 18.9514895,32.967297 C18.7250254,33.0996171 18.3364184,32.8065343 18.3417785,32.5159247 C18.3538387,31.8060954 18.3833192,31.0962661 18.4020796,30.3864368 C18.4191167,30.0889272 18.291943,29.7998274 18.0550133,29.5974627 C17.8687499,29.4317534 17.7789683,29.4552495 17.6463059,29.6531113 C17.1746174,30.3579941 16.708289,31.0702967 16.1856795,31.7417903 C15.9513463,32.0056671 15.6578503,32.219564 15.325384,32.368765 C15.0721194,32.4924286 14.9528572,32.368765 15.0171784,32.1041248 C15.160561,31.5266156 15.3079637,30.950343 15.4473262,30.3728337 C15.5813286,29.8410801 15.6925506,29.3080898 15.8211929,28.7775727 C16.0690974,27.7511645 16.3317422,26.7284661 16.5675864,25.7008212 C16.6453078,25.3644561 16.6895286,25.0095415 16.3170019,24.7312983 C16.5694428,24.4008103 16.9224774,24.1468869 17.3314002,24.0016828 Z M53.9586739,30.1610598 C54.2273389,29.8769573 54.4873373,29.5816403 54.7683832,29.3099985 C55.1298578,28.9312663 55.5961968,28.6707613 56.106756,28.5623604 C56.5685627,28.4776281 56.9177035,28.8003585 56.7109428,29.2040831 C56.416278,29.7772722 56.5388486,30.3679063 56.486849,30.9485718 C56.4658015,31.1853239 56.5066584,31.4283062 56.486849,31.6650583 C56.4416937,31.9210449 56.5996272,32.1689649 56.8496086,32.2345092 C57.0464646,32.3042888 57.0328456,32.4164345 56.9077988,32.5061511 C56.6731054,32.6814572 56.422281,32.8337558 56.1587557,32.9609642 C56.0313968,33.0208761 55.882483,33.0113439 55.7636921,32.9356754 C55.6449011,32.8600069 55.5726086,32.7286333 55.5719021,32.5871452 C55.5818069,31.9018103 55.6226637,31.2164755 55.6486636,30.5323866 C55.6635206,30.146107 55.6796158,29.7585813 55.6783777,29.3710556 C55.673306,29.2861718 55.62699,29.2092582 55.5545689,29.1654551 C55.4637246,29.1540868 55.3726586,29.1847904 55.3069514,29.2489413 C55.019715,29.5866245 54.7473357,29.9367683 54.4712422,30.283174 C53.9487692,30.9386033 53.4349628,31.5990169 52.9001089,32.2432317 C52.7539333,32.4044507 52.5824467,32.5404189 52.392493,32.6457102 C52.2770584,32.6880981 52.1550867,32.7096123 52.0322094,32.7092594 C52.026019,32.5559936 51.9678289,32.3778065 52.0247809,32.2544463 C52.2216369,31.8258005 52.4890638,31.4295523 52.6735389,30.9971683 C52.8501537,30.5489901 53.0022535,30.0914153 53.1291551,29.6264986 C53.1786786,29.4595261 52.9322992,29.2526795 52.6883959,29.2389728 L52.251351,29.2078213 L52.2179226,29.0944295 C52.6463009,28.7368093 53.0722031,28.376697 53.5055338,28.024061 C53.5572134,27.9970889 53.6176114,27.9925861 53.6726756,28.0116004 C53.9202932,28.0801339 54.2384817,28.6583073 54.1679107,28.9050279 C54.1035301,29.1305653 54.0143878,29.3498725 53.9561977,29.576656 C53.9116266,29.753597 53.9004838,29.9380144 53.8732458,30.1186936 L53.9586739,30.1610598 Z M24.0613196,32.5794488 C24.0490557,32.4344724 24.0049056,32.3158554 24.0367918,32.2200033 C24.2366936,31.6317108 24.4648026,31.0518054 24.6622517,30.4623148 C24.7763061,30.124436 24.8547952,29.7745758 24.9406426,29.4271118 C24.9933775,29.2138408 24.9406426,28.9957772 24.738288,28.9107084 C24.6291391,28.8663768 24.453765,28.9730123 24.3102772,29.0161458 C24.2256561,29.0413069 24.1434879,29.073657 24.0649988,29.1024127 L24,29.0365143 C24.096885,28.8711694 24.1557518,28.6507095 24.300466,28.5572537 C24.6166387,28.3442233 24.9574902,28.168472 25.3159186,28.0336614 C25.5403483,27.9485926 25.7807211,28.014491 25.8064753,28.3499734 C25.8310032,28.7549487 25.8776061,29.1587258 25.9205298,29.5625029 C25.9338181,29.6511108 25.9530734,29.7387661 25.9781702,29.8248981 C26.5324994,29.4654526 27.0389993,29.120385 27.5724798,28.8112618 C27.7700345,28.7169067 27.9855658,28.6638566 28.205298,28.6555021 C28.4039735,28.6363317 28.4652931,28.7753173 28.4505764,28.9598326 C28.3684081,29.7506127 28.2874663,30.5413928 28.2138828,31.3333711 C28.1905813,31.5730014 28.2273731,31.8198206 28.4358597,31.9863637 C28.5634169,32.0737646 28.698405,32.150327 28.8393427,32.2152107 L29,32.2990813 C28.7265146,32.707651 28.2641648,32.7963142 27.8888889,33 C27.2756929,32.5770525 27.1604121,32.0977918 27.3333333,31.3920805 C27.4706892,30.83494 27.479274,30.2466475 27.5160657,29.6703366 C27.4982663,29.5416867 27.4256641,29.4263704 27.3161638,29.3528264 C27.2781457,29.3240707 27.1027716,29.4175266 27.0340937,29.4942083 C26.5435369,30.036971 26.0443954,30.5725448 25.6016679,31.1452612 C25.1209222,31.7443371 24.6732892,32.2247959 24.0613196,32.5794488 Z M22.6420018,29.0360362 C22.5411937,29.3754742 22.4274614,29.7125872 22.3421622,30.0555125 C22.2064647,30.5413449 22.0999024,31.0333874 22.0229363,31.5295101 C21.9699474,31.9503202 22.2012892,32.1270139 22.6911135,32.1630501 C22.7963703,32.1799192 22.8997428,32.2052061 23,32.2386099 C22.9481078,32.3321417 22.8889407,32.4222624 22.8229395,32.5083003 C22.547488,32.856675 22.0826453,33.042102 21.6106568,32.9918831 C21.3039744,32.9870825 21.0524163,32.7719301 21.0316561,32.4966757 C20.864935,31.2528449 21.3689757,30.2170942 22.2555705,29.2999143 C22.3537939,29.197618 22.4571869,29.0999714 22.557995,29 L22.6420018,29.0360362 Z M50.7388863,28.0672741 C50.6804812,28.2139492 50.6296112,28.3639932 50.5865082,28.5167223 C50.4394302,29.1493852 50.2910271,29.7806166 50.1624995,30.4175735 C50.0974589,30.6834906 50.0719653,30.9588866 50.0869729,31.2334509 C50.1333489,31.6871933 50.4500304,31.926231 50.8170629,32.079387 C51.0621929,32.1824452 51.0409925,32.3041111 50.871389,32.4672866 C50.5348321,32.7936375 50.1730997,33.067028 49.6907898,32.9854403 C49.5474823,32.96868 49.4151517,32.894652 49.3197822,32.7778925 C48.964675,32.1681315 48.9222741,31.5125669 49.1091029,30.8226495 C49.2857166,30.1026636 49.5825306,29.4235597 49.9849459,28.8187401 C50.1836999,28.5324674 50.4235298,28.2719591 50.6474594,28 L50.7388863,28.0672741 Z M22.4202466,27 C22.2607508,26.8732306 22.1320012,26.7887177 22.0205463,26.6746253 C21.9931512,26.6211784 21.9931512,26.555877 22.0205463,26.5024302 C22.1805743,26.3296301 22.3560061,26.1749676 22.5441922,26.0407783 C22.677501,25.9582857 22.8462013,26.0046568 22.9285195,26.1464195 C23.0342729,26.2909965 23.0213109,26.500633 22.8987341,26.6281431 C22.7473182,26.7642091 22.5874323,26.8884645 22.4202466,27 L22.4202466,27 Z M50.9993232,26.4259104 C50.8736459,26.554682 50.7119137,26.7340817 50.5347294,26.8958717 C50.3997808,27.0180396 50.2452596,27.0576616 50.1154618,26.8760606 C49.985664,26.6944597 49.9320966,26.5227642 50.1340043,26.3631755 C50.2748091,26.2440085 50.4220283,26.1337584 50.5749049,26.032992 C50.7623906,25.9207296 51.0147753,26.1056324 50.9993232,26.4259104 Z M0,0 L1,0 L1,39 L0,39 Z M67,0 L68,0 L68,39 L67,39 Z" id="形状结合"></path>
                </g>
            </g>
        </g>
    </g>
</svg>